STARTFONT 2.1
FONT -ISO8859-1
SIZE 16 75 75
FONTBOUNDINGBOX 16 16 0 -2
STARTPROPERTIES 7
PIXEL_SIZE 16
POINT_SIZE 160
FONT_ASCENT 14
FONT_DESCENT 2
CHARSET_REGISTRY "iso10646"
CHARSET_ENCODING "1"
DEFAULT_CHAR 12288
ENDPROPERTIES
CHARS 450
STARTCHAR U+0020
ENCODING 32
SWIDTH 500 0
DWIDTH 8 0
BBX 8 16 0 -2
BITMAP
00
00
00
00
00
00
00
00
00
00
00
00
00
00
00
00
ENDCHAR
STARTCHAR U+0021
ENCODING 33
SWIDTH 500 0
DWIDTH 8 0
BBX 8 16 0 -2
BITMAP
00
00
00
18
18
18
18
18
18
18
18
00
18
18
00
00
ENDCHAR
STARTCHAR U+0022
ENCODING 34
SWIDTH 500 0
DWIDTH 8 0
BBX 8 16 0 -2
BITMAP
00
00
00
6C
6C
6C
00
00
00
00
00
00
00
00
00
00
ENDCHAR
STARTCHAR U+0023
ENCODING 35
SWIDTH 500 0
DWIDTH 8 0
BBX 8 16 0 -2
BITMAP
00
00
00
6C
6C
6C
FE
6C
6C
6C
FE
6C
6C
6C
00
00
ENDCHAR
STARTCHAR U+0024
ENCODING 36
SWIDTH 500 0
DWIDTH 8 0
BBX 8 16 0 -2
BITMAP
00
00
18
3C
7E
5A
58
7C
3E
1A
5A
7E
3C
18
00
00
ENDCHAR
STARTCHAR U+0025
ENCODING 37
SWIDTH 500 0
DWIDTH 8 0
BBX 8 16 0 -2
BITMAP
00
00
00
66
D6
DC
DC
78
38
3C
76
76
D6
CC
00
00
ENDCHAR
STARTCHAR U+0026
ENCODING 38
SWIDTH 500 0
DWIDTH 8 0
BBX 8 16 0 -2
BITMAP
00
00
00
38
6C
6C
6C
38
70
DA
DA
CC
CE
7A
00
00
ENDCHAR
STARTCHAR U+0027
ENCODING 39
SWIDTH 500 0
DWIDTH 8 0
BBX 8 16 0 -2
BITMAP
00
00
00
18
18
18
00
00
00
00
00
00
00
00
00
00
ENDCHAR
STARTCHAR U+0028
ENCODING 40
SWIDTH 500 0
DWIDTH 8 0
BBX 8 16 0 -2
BITMAP
00
00
0C
18
30
30
60
60
60
60
30
30
18
0C
00
00
ENDCHAR
STARTCHAR U+0029
ENCODING 41
SWIDTH 500 0
DWIDTH 8 0
BBX 8 16 0 -2
BITMAP
00
00
60
30
18
18
0C
0C
0C
0C
18
18
30
60
00
00
ENDCHAR
STARTCHAR U+002A
ENCODING 42
SWIDTH 500 0
DWIDTH 8 0
BBX 8 16 0 -2
BITMAP
00
00
00
10
D6
7C
38
7C
D6
10
00
00
00
00
00
00
ENDCHAR
STARTCHAR U+002B
ENCODING 43
SWIDTH 500 0
DWIDTH 8 0
BBX 8 16 0 -2
BITMAP
00
00
00
00
00
00
18
18
18
7E
18
18
18
00
00
00
ENDCHAR
STARTCHAR U+002C
ENCODING 44
SWIDTH 500 0
DWIDTH 8 0
BBX 8 16 0 -2
BITMAP
00
00
00
00
00
00
00
00
00
00
00
00
60
60
20
40
ENDCHAR
STARTCHAR U+002D
ENCODING 45
SWIDTH 500 0
DWIDTH 8 0
BBX 8 16 0 -2
BITMAP
00
00
00
00
00
00
00
7E
00
00
00
00
00
00
00
00
ENDCHAR
STARTCHAR U+002E
ENCODING 46
SWIDTH 500 0
DWIDTH 8 0
BBX 8 16 0 -2
BITMAP
00
00
00
00
00
00
00
00
00
00
00
00
60
60
00
00
ENDCHAR
STARTCHAR U+002F
ENCODING 47
SWIDTH 500 0
DWIDTH 8 0
BBX 8 16 0 -2
BITMAP
00
00
0C
0C
0C
18
18
18
30
30
30
60
60
60
00
00
ENDCHAR
STARTCHAR U+0030
ENCODING 48
SWIDTH 500 0
DWIDTH 8 0
BBX 8 16 0 -2
BITMAP
00
00
38
6C
C6
C6
C6
C6
C6
C6
C6
C6
6C
38
00
00
ENDCHAR
STARTCHAR U+0031
ENCODING 49
SWIDTH 500 0
DWIDTH 8 0
BBX 8 16 0 -2
BITMAP
00
00
18
78
18
18
18
18
18
18
18
18
18
18
00
00
ENDCHAR
STARTCHAR U+0032
ENCODING 50
SWIDTH 500 0
DWIDTH 8 0
BBX 8 16 0 -2
BITMAP
00
00
38
6C
C6
C6
06
06
0C
18
30
60
C0
FE
00
00
ENDCHAR
STARTCHAR U+0033
ENCODING 51
SWIDTH 500 0
DWIDTH 8 0
BBX 8 16 0 -2
BITMAP
00
00
38
6C
C6
06
0C
18
0C
06
06
C6
6C
38
00
00
ENDCHAR
STARTCHAR U+0034
ENCODING 52
SWIDTH 500 0
DWIDTH 8 0
BBX 8 16 0 -2
BITMAP
00
00
0C
1C
1C
3C
3C
6C
6C
CC
CC
FE
0C
0C
00
00
ENDCHAR
STARTCHAR U+0035
ENCODING 53
SWIDTH 500 0
DWIDTH 8 0
BBX 8 16 0 -2
BITMAP
00
00
FC
C0
C0
C0
D8
EC
C6
06
06
C6
6C
38
00
00
ENDCHAR
STARTCHAR U+0036
ENCODING 54
SWIDTH 500 0
DWIDTH 8 0
BBX 8 16 0 -2
BITMAP
00
00
38
6C
C6
C0
D8
EC
C6
C6
C6
C6
6C
38
00
00
ENDCHAR
STARTCHAR U+0037
ENCODING 55
SWIDTH 500 0
DWIDTH 8 0
BBX 8 16 0 -2
BITMAP
00
00
FE
06
06
0C
0C
18
18
18
30
30
30
30
00
00
ENDCHAR
STARTCHAR U+0038
ENCODING 56
SWIDTH 500 0
DWIDTH 8 0
BBX 8 16 0 -2
BITMAP
00
00
38
6C
C6
C6
6C
38
6C
C6
C6
C6
6C
38
00
00
ENDCHAR
STARTCHAR U+0039
ENCODING 57
SWIDTH 500 0
DWIDTH 8 0
BBX 8 16 0 -2
BITMAP
00
00
38
6C
C6
C6
C6
C6
6E
36
06
C6
6C
38
00
00
ENDCHAR
STARTCHAR U+003A
ENCODING 58
SWIDTH 500 0
DWIDTH 8 0
BBX 8 16 0 -2
BITMAP
00
00
00
00
00
00
18
18
00
00
00
00
18
18
00
00
ENDCHAR
STARTCHAR U+003B
ENCODING 59
SWIDTH 500 0
DWIDTH 8 0
BBX 8 16 0 -2
BITMAP
00
00
00
00
00
00
18
18
00
00
00
00
18
18
08
10
ENDCHAR
STARTCHAR U+003C
ENCODING 60
SWIDTH 500 0
DWIDTH 8 0
BBX 8 16 0 -2
BITMAP
00
00
00
00
00
0E
38
60
C0
60
38
0E
00
00
00
00
ENDCHAR
STARTCHAR U+003D
ENCODING 61
SWIDTH 500 0
DWIDTH 8 0
BBX 8 16 0 -2
BITMAP
00
00
00
00
00
00
00
7E
00
00
7E
00
00
00
00
00
ENDCHAR
STARTCHAR U+003E
ENCODING 62
SWIDTH 500 0
DWIDTH 8 0
BBX 8 16 0 -2
BITMAP
00
00
00
00
00
E0
38
0C
06
0C
38
E0
00
00
00
00
ENDCHAR
STARTCHAR U+003F
ENCODING 63
SWIDTH 500 0
DWIDTH 8 0
BBX 8 16 0 -2
BITMAP
00
00
7C
C6
C6
06
0C
18
30
30
30
00
30
30
00
00
ENDCHAR
STARTCHAR U+0040
ENCODING 64
SWIDTH 500 0
DWIDTH 8 0
BBX 8 16 0 -2
BITMAP
00
00
00
38
6C
C6
CE
D6
D6
D6
DC
C2
66
3C
00
00
ENDCHAR
STARTCHAR U+0041
ENCODING 65
SWIDTH 500 0
DWIDTH 8 0
BBX 8 16 0 -2
BITMAP
00
00
00
10
38
38
6C
6C
C6
C6
FE
C6
C6
C6
00
00
ENDCHAR
STARTCHAR U+0042
ENCODING 66
SWIDTH 500 0
DWIDTH 8 0
BBX 8 16 0 -2
BITMAP
00
00
00
FC
C6
C6
C6
C6
FC
C6
C6
C6
C6
FC
00
00
ENDCHAR
STARTCHAR U+0043
ENCODING 67
SWIDTH 500 0
DWIDTH 8 0
BBX 8 16 0 -2
BITMAP
00
00
00
3C
66
C2
C0
C0
C0
C0
C0
C2
66
3C
00
00
ENDCHAR
STARTCHAR U+0044
ENCODING 68
SWIDTH 500 0
DWIDTH 8 0
BBX 8 16 0 -2
BITMAP
00
00
00
F8
CC
C6
C6
C6
C6
C6
C6
C6
CC
F8
00
00
ENDCHAR
STARTCHAR U+0045
ENCODING 69
SWIDTH 500 0
DWIDTH 8 0
BBX 8 16 0 -2
BITMAP
00
00
00
FE
C0
C0
C0
C0
FC
C0
C0
C0
C0
FE
00
00
ENDCHAR
STARTCHAR U+0046
ENCODING 70
SWIDTH 500 0
DWIDTH 8 0
BBX 8 16 0 -2
BITMAP
00
00
00
FE
C0
C0
C0
C0
FC
C0
C0
C0
C0
C0
00
00
ENDCHAR
STARTCHAR U+0047
ENCODING 71
SWIDTH 500 0
DWIDTH 8 0
BBX 8 16 0 -2
BITMAP
00
00
00
3C
66
C2
C0
C0
CE
C6
C6
C6
66
3C
00
00
ENDCHAR
STARTCHAR U+0048
ENCODING 72
SWIDTH 500 0
DWIDTH 8 0
BBX 8 16 0 -2
BITMAP
00
00
00
C6
C6
C6
C6
C6
FE
C6
C6
C6
C6
C6
00
00
ENDCHAR
STARTCHAR U+0049
ENCODING 73
SWIDTH 500 0
DWIDTH 8 0
BBX 8 16 0 -2
BITMAP
00
00
00
18
18
18
18
18
18
18
18
18
18
18
00
00
ENDCHAR
STARTCHAR U+004A
ENCODING 74
SWIDTH 500 0
DWIDTH 8 0
BBX 8 16 0 -2
BITMAP
00
00
00
06
06
06
06
06
06
06
06
C6
6C
38
00
00
ENDCHAR
STARTCHAR U+004B
ENCODING 75
SWIDTH 500 0
DWIDTH 8 0
BBX 8 16 0 -2
BITMAP
00
00
00
C6
C6
CC
D8
F0
D8
D8
CC
CC
C6
C6
00
00
ENDCHAR
STARTCHAR U+004C
ENCODING 76
SWIDTH 500 0
DWIDTH 8 0
BBX 8 16 0 -2
BITMAP
00
00
00
C0
C0
C0
C0
C0
C0
C0
C0
C0
C0
FE
00
00
ENDCHAR
STARTCHAR U+004D
ENCODING 77
SWIDTH 500 0
DWIDTH 8 0
BBX 8 16 0 -2
BITMAP
00
00
00
C6
C6
EE
FE
D6
C6
C6
C6
C6
C6
C6
00
00
ENDCHAR
STARTCHAR U+004E
ENCODING 78
SWIDTH 500 0
DWIDTH 8 0
BBX 8 16 0 -2
BITMAP
00
00
00
C6
E6
E6
F6
F6
DE
DE
DE
CE
CE
C6
00
00
ENDCHAR
STARTCHAR U+004F
ENCODING 79
SWIDTH 500 0
DWIDTH 8 0
BBX 8 16 0 -2
BITMAP
00
00
00
38
6C
C6
C6
C6
C6
C6
C6
C6
6C
38
00
00
ENDCHAR
STARTCHAR U+0050
ENCODING 80
SWIDTH 500 0
DWIDTH 8 0
BBX 8 16 0 -2
BITMAP
00
00
00
F8
CC
C6
C2
C6
CC
F8
C0
C0
C0
C0
00
00
ENDCHAR
STARTCHAR U+0051
ENCODING 81
SWIDTH 500 0
DWIDTH 8 0
BBX 8 16 0 -2
BITMAP
00
00
00
38
6C
C6
C6
C6
C6
C6
C6
D6
6C
3C
06
00
ENDCHAR
STARTCHAR U+0052
ENCODING 82
SWIDTH 500 0
DWIDTH 8 0
BBX 8 16 0 -2
BITMAP
00
00
00
F8
CC
C6
C2
C6
CC
F8
D8
CC
CC
C6
00
00
ENDCHAR
STARTCHAR U+0053
ENCODING 83
SWIDTH 500 0
DWIDTH 8 0
BBX 8 16 0 -2
BITMAP
00
00
00
38
6C
C6
C0
60
38
0C
06
C6
6C
38
00
00
ENDCHAR
STARTCHAR U+0054
ENCODING 84
SWIDTH 500 0
DWIDTH 8 0
BBX 8 16 0 -2
BITMAP
00
00
00
7E
18
18
18
18
18
18
18
18
18
18
00
00
ENDCHAR
STARTCHAR U+0055
ENCODING 85
SWIDTH 500 0
DWIDTH 8 0
BBX 8 16 0 -2
BITMAP
00
00
00
C6
C6
C6
C6
C6
C6
C6
C6
C6
C6
7C
00
00
ENDCHAR
STARTCHAR U+0056
ENCODING 86
SWIDTH 500 0
DWIDTH 8 0
BBX 8 16 0 -2
BITMAP
00
00
00
C6
C6
C6
C6
6C
6C
6C
38
38
10
10
00
00
ENDCHAR
STARTCHAR U+0057
ENCODING 87
SWIDTH 500 0
DWIDTH 8 0
BBX 8 16 0 -2
BITMAP
00
00
00
D6
D6
D6
D6
D6
D6
7C
6C
6C
6C
6C
00
00
ENDCHAR
STARTCHAR U+0058
ENCODING 88
SWIDTH 500 0
DWIDTH 8 0
BBX 8 16 0 -2
BITMAP
00
00
00
C6
C6
6C
6C
38
10
38
6C
6C
C6
C6
00
00
ENDCHAR
STARTCHAR U+0059
ENCODING 89
SWIDTH 500 0
DWIDTH 8 0
BBX 8 16 0 -2
BITMAP
00
00
00
66
66
66
3C
3C
18
18
18
18
18
18
00
00
ENDCHAR
STARTCHAR U+005A
ENCODING 90
SWIDTH 500 0
DWIDTH 8 0
BBX 8 16 0 -2
BITMAP
00
00
00
FE
06
0C
0C
18
18
30
60
60
C0
FE
00
00
ENDCHAR
STARTCHAR U+005B
ENCODING 91
SWIDTH 500 0
DWIDTH 8 0
BBX 8 16 0 -2
BITMAP
00
00
3C
30
30
30
30
30
30
30
30
30
30
30
3C
00
ENDCHAR
STARTCHAR U+005C
ENCODING 92
SWIDTH 500 0
DWIDTH 8 0
BBX 8 16 0 -2
BITMAP
00
00
60
60
60
30
30
30
18
18
18
0C
0C
0C
00
00
ENDCHAR
STARTCHAR U+005D
ENCODING 93
SWIDTH 500 0
DWIDTH 8 0
BBX 8 16 0 -2
BITMAP
00
00
3C
0C
0C
0C
0C
0C
0C
0C
0C
0C
0C
3C
00
00
ENDCHAR
STARTCHAR U+005E
ENCODING 94
SWIDTH 500 0
DWIDTH 8 0
BBX 8 16 0 -2
BITMAP
00
00
18
3C
3C
66
66
00
00
00
00
00
00
00
00
00
ENDCHAR
STARTCHAR U+005F
ENCODING 95
SWIDTH 500 0
DWIDTH 8 0
BBX 8 16 0 -2
BITMAP
00
00
00
00
00
00
00
00
00
00
00
00
00
00
00
FE
ENDCHAR
STARTCHAR U+0060
ENCODING 96
SWIDTH 500 0
DWIDTH 8 0
BBX 8 16 0 -2
BITMAP
00
00
00
30
18
0C
00
00
00
00
00
00
00
00
00
00
ENDCHAR
STARTCHAR U+0061
ENCODING 97
SWIDTH 500 0
DWIDTH 8 0
BBX 8 16 0 -2
BITMAP
00
00
00
00
00
00
3C
66
06
3E
66
66
66
3E
00
00
ENDCHAR
STARTCHAR U+0062
ENCODING 98
SWIDTH 500 0
DWIDTH 8 0
BBX 8 16 0 -2
BITMAP
00
00
00
C0
C0
C0
FC
C6
C6
C6
C6
C6
C6
FC
00
00
ENDCHAR
STARTCHAR U+0063
ENCODING 99
SWIDTH 500 0
DWIDTH 8 0
BBX 8 16 0 -2
BITMAP
00
00
00
00
00
00
7C
C6
C0
C0
C0
C0
C6
7C
00
00
ENDCHAR
STARTCHAR U+0064
ENCODING 100
SWIDTH 500 0
DWIDTH 8 0
BBX 8 16 0 -2
BITMAP
00
00
00
06
06
06
7E
C6
C6
C6
C6
C6
C6
7E
00
00
ENDCHAR
STARTCHAR U+0065
ENCODING 101
SWIDTH 500 0
DWIDTH 8 0
BBX 8 16 0 -2
BITMAP
00
00
00
00
00
00
7C
C6
C6
FE
C0
C0
C6
7C
00
00
ENDCHAR
STARTCHAR U+0066
ENCODING 102
SWIDTH 500 0
DWIDTH 8 0
BBX 8 16 0 -2
BITMAP
00
00
00
0E
18
18
7E
18
18
18
18
18
18
18
00
00
ENDCHAR
STARTCHAR U+0067
ENCODING 103
SWIDTH 500 0
DWIDTH 8 0
BBX 8 16 0 -2
BITMAP
00
00
00
00
00
00
7E
C6
C6
C6
C6
C6
7E
06
C6
7C
ENDCHAR
STARTCHAR U+0068
ENCODING 104
SWIDTH 500 0
DWIDTH 8 0
BBX 8 16 0 -2
BITMAP
00
00
00
C0
C0
C0
FC
C6
C6
C6
C6
C6
C6
C6
00
00
ENDCHAR
STARTCHAR U+0069
ENCODING 105
SWIDTH 500 0
DWIDTH 8 0
BBX 8 16 0 -2
BITMAP
00
00
00
18
18
00
18
18
18
18
18
18
18
18
00
00
ENDCHAR
STARTCHAR U+006A
ENCODING 106
SWIDTH 500 0
DWIDTH 8 0
BBX 8 16 0 -2
BITMAP
00
00
00
18
18
00
18
18
18
18
18
18
18
18
18
70
ENDCHAR
STARTCHAR U+006B
ENCODING 107
SWIDTH 500 0
DWIDTH 8 0
BBX 8 16 0 -2
BITMAP
00
00
00
C0
C0
C0
C6
CC
D8
F0
F0
D8
CC
C6
00
00
ENDCHAR
STARTCHAR U+006C
ENCODING 108
SWIDTH 500 0
DWIDTH 8 0
BBX 8 16 0 -2
BITMAP
00
00
00
18
18
18
18
18
18
18
18
18
18
18
00
00
ENDCHAR
STARTCHAR U+006D
ENCODING 109
SWIDTH 500 0
DWIDTH 8 0
BBX 8 16 0 -2
BITMAP
00
00
00
00
00
00
AC
D6
D6
D6
D6
D6
D6
D6
00
00
ENDCHAR
STARTCHAR U+006E
ENCODING 110
SWIDTH 500 0
DWIDTH 8 0
BBX 8 16 0 -2
BITMAP
00
00
00
00
00
00
DC
E6
C6
C6
C6
C6
C6
C6
00
00
ENDCHAR
STARTCHAR U+006F
ENCODING 111
SWIDTH 500 0
DWIDTH 8 0
BBX 8 16 0 -2
BITMAP
00
00
00
00
00
00
7C
C6
C6
C6
C6
C6
C6
7C
00
00
ENDCHAR
STARTCHAR U+0070
ENCODING 112
SWIDTH 500 0
DWIDTH 8 0
BBX 8 16 0 -2
BITMAP
00
00
00
00
00
00
FC
C6
C6
C6
C6
C6
C6
FC
C0
C0
ENDCHAR
STARTCHAR U+0071
ENCODING 113
SWIDTH 500 0
DWIDTH 8 0
BBX 8 16 0 -2
BITMAP
00
00
00
00
00
00
7E
C6
C6
C6
C6
C6
C6
7E
06
06
ENDCHAR
STARTCHAR U+0072
ENCODING 114
SWIDTH 500 0
DWIDTH 8 0
BBX 8 16 0 -2
BITMAP
00
00
00
00
00
00
6E
78
70
60
60
60
60
60
00
00
ENDCHAR
STARTCHAR U+0073
ENCODING 115
SWIDTH 500 0
DWIDTH 8 0
BBX 8 16 0 -2
BITMAP
00
00
00
00
00
00
3C
66
60
38
0C
06
66
3C
00
00
ENDCHAR
STARTCHAR U+0074
ENCODING 116
SWIDTH 500 0
DWIDTH 8 0
BBX 8 16 0 -2
BITMAP
00
00
00
18
18
18
7E
18
18
18
18
18
18
0E
00
00
ENDCHAR
STARTCHAR U+0075
ENCODING 117
SWIDTH 500 0
DWIDTH 8 0
BBX 8 16 0 -2
BITMAP
00
00
00
00
00
00
66
66
66
66
66
66
66
3E
00
00
ENDCHAR
STARTCHAR U+0076
ENCODING 118
SWIDTH 500 0
DWIDTH 8 0
BBX 8 16 0 -2
BITMAP
00
00
00
00
00
00
C6
C6
6C
6C
38
38
10
10
00
00
ENDCHAR
STARTCHAR U+0077
ENCODING 119
SWIDTH 500 0
DWIDTH 8 0
BBX 8 16 0 -2
BITMAP
00
00
00
00
00
00
D6
D6
D6
D6
D6
7C
6C
6C
00
00
ENDCHAR
STARTCHAR U+0078
ENCODING 120
SWIDTH 500 0
DWIDTH 8 0
BBX 8 16 0 -2
BITMAP
00
00
00
00
00
00
C6
6C
6C
38
38
6C
6C
C6
00
00
ENDCHAR
STARTCHAR U+0079
ENCODING 121
SWIDTH 500 0
DWIDTH 8 0
BBX 8 16 0 -2
BITMAP
00
00
00
00
00
00
C6
C6
6C
6C
38
38
18
30
30
E0
ENDCHAR
STARTCHAR U+007A
ENCODING 122
SWIDTH 500 0
DWIDTH 8 0
BBX 8 16 0 -2
BITMAP
00
00
00
00
00
00
FE
06
0C
18
30
60
C0
FE
00
00
ENDCHAR
STARTCHAR U+007B
ENCODING 123
SWIDTH 500 0
DWIDTH 8 0
BBX 8 16 0 -2
BITMAP
00
00
0C
18
18
18
18
18
30
18
18
18
18
18
0C
00
ENDCHAR
STARTCHAR U+007C
ENCODING 124
SWIDTH 500 0
DWIDTH 8 0
BBX 8 16 0 -2
BITMAP
00
00
00
18
18
18
18
18
18
18
18
18
18
18
00
00
ENDCHAR
STARTCHAR U+007D
ENCODING 125
SWIDTH 500 0
DWIDTH 8 0
BBX 8 16 0 -2
BITMAP
00
00
30
18
18
18
18
18
0C
18
18
18
18
18
30
00
ENDCHAR
STARTCHAR U+007E
ENCODING 126
SWIDTH 500 0
DWIDTH 8 0
BBX 8 16 0 -2
BITMAP
00
00
00
00
00
00
72
FE
9C
00
00
00
00
00
00
00
ENDCHAR
STARTCHAR U+0080
ENCODING 128
SWIDTH 500 0
DWIDTH 8 0
BBX 8 16 0 -2
BITMAP
00
00
00
1C
22
40
40
F8
40
F8
40
40
40
22
1C
00
ENDCHAR
STARTCHAR U+00A0
ENCODING 160
SWIDTH 500 0
DWIDTH 8 0
BBX 8 16 0 -2
BITMAP
00
00
00
00
00
00
00
00
00
00
00
00
00
00
00
00
ENDCHAR
STARTCHAR U+00A1
ENCODING 161
SWIDTH 500 0
DWIDTH 8 0
BBX 8 16 0 -2
BITMAP
00
00
00
18
18
00
18
18
18
18
18
18
18
18
00
00
ENDCHAR
STARTCHAR U+00A2
ENCODING 162
SWIDTH 500 0
DWIDTH 8 0
BBX 8 16 0 -2
BITMAP
00
00
00
00
0C
0C
7C
FE
DA
D8
D8
DA
FE
7C
30
30
ENDCHAR
STARTCHAR U+00A3
ENCODING 163
SWIDTH 500 0
DWIDTH 8 0
BBX 8 16 0 -2
BITMAP
00
00
00
3C
66
60
60
FC
30
30
70
DA
DA
6C
00
00
ENDCHAR
STARTCHAR U+00A4
ENCODING 164
SWIDTH 500 0
DWIDTH 8 0
BBX 8 16 0 -2
BITMAP
00
00
00
00
00
00
C6
7C
6C
6C
6C
7C
C6
00
00
00
ENDCHAR
STARTCHAR U+00A5
ENCODING 165
SWIDTH 500 0
DWIDTH 8 0
BBX 8 16 0 -2
BITMAP
00
00
00
66
66
3C
3C
7E
18
7E
18
18
18
18
00
00
ENDCHAR
STARTCHAR U+00A6
ENCODING 166
SWIDTH 500 0
DWIDTH 8 0
BBX 8 16 0 -2
BITMAP
00
00
00
18
18
18
18
18
00
18
18
18
18
18
00
00
ENDCHAR
STARTCHAR U+00A7
ENCODING 167
SWIDTH 500 0
DWIDTH 8 0
BBX 8 16 0 -2
BITMAP
00
00
00
3C
66
60
38
6C
66
36
1C
06
66
3C
00
00
ENDCHAR
STARTCHAR U+00A8
ENCODING 168
SWIDTH 500 0
DWIDTH 8 0
BBX 8 16 0 -2
BITMAP
00
00
00
6C
6C
00
00
00
00
00
00
00
00
00
00
00
ENDCHAR
STARTCHAR U+00A9
ENCODING 169
SWIDTH 500 0
DWIDTH 8 0
BBX 8 16 0 -2
BITMAP
00
00
00
38
6C
C6
BA
AA
A2
AA
BA
C6
6C
38
00
00
ENDCHAR
STARTCHAR U+00AA
ENCODING 170
SWIDTH 500 0
DWIDTH 8 0
BBX 8 16 0 -2
BITMAP
70
98
78
D8
D8
78
00
00
00
00
00
00
00
00
00
00
ENDCHAR
STARTCHAR U+00AB
ENCODING 171
SWIDTH 500 0
DWIDTH 8 0
BBX 8 16 0 -2
BITMAP
00
00
00
36
36
6C
6C
D8
D8
6C
6C
36
36
00
00
00
ENDCHAR
STARTCHAR U+00AC
ENCODING 172
SWIDTH 500 0
DWIDTH 8 0
BBX 8 16 0 -2
BITMAP
00
00
00
00
00
00
FE
06
06
06
06
06
06
00
00
00
ENDCHAR
STARTCHAR U+00AD
ENCODING 173
SWIDTH 500 0
DWIDTH 8 0
BBX 8 16 0 -2
BITMAP
00
00
00
00
00
00
7C
00
00
00
00
00
00
00
00
00
ENDCHAR
STARTCHAR U+00AE
ENCODING 174
SWIDTH 500 0
DWIDTH 8 0
BBX 8 16 0 -2
BITMAP
00
00
00
38
6C
C6
B2
AA
B2
AA
AA
C6
6C
38
00
00
ENDCHAR
STARTCHAR U+00AF
ENCODING 175
SWIDTH 500 0
DWIDTH 8 0
BBX 8 16 0 -2
BITMAP
7E
00
00
00
00
00
00
00
00
00
00
00
00
00
00
00
ENDCHAR
STARTCHAR U+00B0
ENCODING 176
SWIDTH 500 0
DWIDTH 8 0
BBX 8 16 0 -2
BITMAP
38
6C
6C
38
00
00
00
00
00
00
00
00
00
00
00
00
ENDCHAR
STARTCHAR U+00B1
ENCODING 177
SWIDTH 500 0
DWIDTH 8 0
BBX 8 16 0 -2
BITMAP
00
00
00
18
18
18
7E
18
18
18
00
00
7E
00
00
00
ENDCHAR
STARTCHAR U+00B2
ENCODING 178
SWIDTH 500 0
DWIDTH 8 0
BBX 8 16 0 -2
BITMAP
E0
30
30
60
C0
F0
00
00
00
00
00
00
00
00
00
00
ENDCHAR
STARTCHAR U+00B3
ENCODING 179
SWIDTH 500 0
DWIDTH 8 0
BBX 8 16 0 -2
BITMAP
E0
30
60
30
30
E0
00
00
00
00
00
00
00
00
00
00
ENDCHAR
STARTCHAR U+00B4
ENCODING 180
SWIDTH 500 0
DWIDTH 8 0
BBX 8 16 0 -2
BITMAP
30
60
C0
00
00
00
00
00
00
00
00
00
00
00
00
00
ENDCHAR
STARTCHAR U+00B5
ENCODING 181
SWIDTH 500 0
DWIDTH 8 0
BBX 8 16 0 -2
BITMAP
00
00
00
00
00
00
C6
C6
C6
C6
C6
C6
E6
DA
C0
C0
ENDCHAR
STARTCHAR U+00B6
ENCODING 182
SWIDTH 500 0
DWIDTH 8 0
BBX 8 16 0 -2
BITMAP
00
00
00
7E
EC
EC
EC
EC
6C
6C
6C
6C
6C
6C
00
00
ENDCHAR
STARTCHAR U+00B7
ENCODING 183
SWIDTH 500 0
DWIDTH 8 0
BBX 8 16 0 -2
BITMAP
00
00
00
00
00
00
18
18
00
00
00
00
00
00
00
00
ENDCHAR
STARTCHAR U+00B8
ENCODING 184
SWIDTH 500 0
DWIDTH 8 0
BBX 8 16 0 -2
BITMAP
00
00
00
00
00
00
00
00
00
00
00
00
30
38
0C
78
ENDCHAR
STARTCHAR U+00B9
ENCODING 185
SWIDTH 500 0
DWIDTH 8 0
BBX 8 16 0 -2
BITMAP
60
E0
60
60
60
60
00
00
00
00
00
00
00
00
00
00
ENDCHAR
STARTCHAR U+00BA
ENCODING 186
SWIDTH 500 0
DWIDTH 8 0
BBX 8 16 0 -2
BITMAP
70
D8
D8
D8
70
00
00
00
00
00
00
00
00
00
00
00
ENDCHAR
STARTCHAR U+00BB
ENCODING 187
SWIDTH 500 0
DWIDTH 8 0
BBX 8 16 0 -2
BITMAP
00
00
00
D8
D8
6C
6C
36
36
6C
6C
D8
D8
00
00
00
ENDCHAR
STARTCHAR U+00BC
ENCODING 188
SWIDTH 500 0
DWIDTH 8 0
BBX 8 16 0 -2
BITMAP
00
00
00
66
E6
6C
6C
78
7C
3C
6C
6C
FE
CC
00
00
ENDCHAR
STARTCHAR U+00BD
ENCODING 189
SWIDTH 500 0
DWIDTH 8 0
BBX 8 16 0 -2
BITMAP
00
00
00
66
E6
6C
6C
78
7C
36
66
6C
D8
DE
00
00
ENDCHAR
STARTCHAR U+00BE
ENCODING 190
SWIDTH 500 0
DWIDTH 8 0
BBX 8 16 0 -2
BITMAP
00
00
00
E6
36
6C
3C
38
FC
3C
6C
6C
FE
CC
00
00
ENDCHAR
STARTCHAR U+00BF
ENCODING 191
SWIDTH 500 0
DWIDTH 8 0
BBX 8 16 0 -2
BITMAP
00
00
00
18
18
00
18
18
18
30
60
66
66
3C
00
00
ENDCHAR
STARTCHAR U+00C0
ENCODING 192
SWIDTH 500 0
DWIDTH 8 0
BBX 8 16 0 -2
BITMAP
70
38
00
10
38
38
6C
6C
C6
C6
FE
C6
C6
C6
00
00
ENDCHAR
STARTCHAR U+00C1
ENCODING 193
SWIDTH 500 0
DWIDTH 8 0
BBX 8 16 0 -2
BITMAP
1C
38
00
10
38
38
6C
6C
C6
C6
FE
C6
C6
C6
00
00
ENDCHAR
STARTCHAR U+00C2
ENCODING 194
SWIDTH 500 0
DWIDTH 8 0
BBX 8 16 0 -2
BITMAP
38
6C
00
10
38
38
6C
6C
C6
C6
FE
C6
C6
C6
00
00
ENDCHAR
STARTCHAR U+00C3
ENCODING 195
SWIDTH 500 0
DWIDTH 8 0
BBX 8 16 0 -2
BITMAP
76
DC
00
10
38
38
6C
6C
C6
C6
FE
C6
C6
C6
00
00
ENDCHAR
STARTCHAR U+00C4
ENCODING 196
SWIDTH 500 0
DWIDTH 8 0
BBX 8 16 0 -2
BITMAP
6C
6C
00
10
38
38
6C
6C
C6
C6
FE
C6
C6
C6
00
00
ENDCHAR
STARTCHAR U+00C5
ENCODING 197
SWIDTH 500 0
DWIDTH 8 0
BBX 8 16 0 -2
BITMAP
7C
6C
7C
10
38
38
6C
6C
C6
C6
FE
C6
C6
C6
00
00
ENDCHAR
STARTCHAR U+00C6
ENCODING 198
SWIDTH 500 0
DWIDTH 8 0
BBX 8 16 0 -2
BITMAP
00
00
00
3E
38
78
78
D8
DE
D8
F8
D8
D8
DE
00
00
ENDCHAR
STARTCHAR U+00C7
ENCODING 199
SWIDTH 500 0
DWIDTH 8 0
BBX 8 16 0 -2
BITMAP
00
00
00
3C
66
C2
C0
C0
C0
C0
C0
C2
66
3C
18
70
ENDCHAR
STARTCHAR U+00C8
ENCODING 200
SWIDTH 500 0
DWIDTH 8 0
BBX 8 16 0 -2
BITMAP
70
38
00
FE
C0
C0
C0
C0
FC
C0
C0
C0
C0
FE
00
00
ENDCHAR
STARTCHAR U+00C9
ENCODING 201
SWIDTH 500 0
DWIDTH 8 0
BBX 8 16 0 -2
BITMAP
1C
38
00
FE
C0
C0
C0
C0
FC
C0
C0
C0
C0
FE
00
00
ENDCHAR
STARTCHAR U+00CA
ENCODING 202
SWIDTH 500 0
DWIDTH 8 0
BBX 8 16 0 -2
BITMAP
38
6C
00
FE
C0
C0
C0
C0
FC
C0
C0
C0
C0
FE
00
00
ENDCHAR
STARTCHAR U+00CB
ENCODING 203
SWIDTH 500 0
DWIDTH 8 0
BBX 8 16 0 -2
BITMAP
6C
6C
00
FE
C0
C0
C0
C0
FC
C0
C0
C0
C0
FE
00
00
ENDCHAR
STARTCHAR U+00CC
ENCODING 204
SWIDTH 500 0
DWIDTH 8 0
BBX 8 16 0 -2
BITMAP
38
1C
00
18
18
18
18
18
18
18
18
18
18
18
00
00
ENDCHAR
STARTCHAR U+00CD
ENCODING 205
SWIDTH 500 0
DWIDTH 8 0
BBX 8 16 0 -2
BITMAP
1C
38
00
18
18
18
18
18
18
18
18
18
18
18
00
00
ENDCHAR
STARTCHAR U+00CE
ENCODING 206
SWIDTH 500 0
DWIDTH 8 0
BBX 8 16 0 -2
BITMAP
38
6C
00
18
18
18
18
18
18
18
18
18
18
18
00
00
ENDCHAR
STARTCHAR U+00CF
ENCODING 207
SWIDTH 500 0
DWIDTH 8 0
BBX 8 16 0 -2
BITMAP
66
66
00
18
18
18
18
18
18
18
18
18
18
18
00
00
ENDCHAR
STARTCHAR U+00D0
ENCODING 208
SWIDTH 500 0
DWIDTH 8 0
BBX 8 16 0 -2
BITMAP
00
00
00
78
6C
66
66
66
F6
66
66
66
6C
78
00
00
ENDCHAR
STARTCHAR U+00D1
ENCODING 209
SWIDTH 500 0
DWIDTH 8 0
BBX 8 16 0 -2
BITMAP
76
DC
00
C6
E6
E6
F6
F6
DE
DE
DE
CE
CE
C6
00
00
ENDCHAR
STARTCHAR U+00D2
ENCODING 210
SWIDTH 500 0
DWIDTH 8 0
BBX 8 16 0 -2
BITMAP
70
38
00
38
6C
C6
C6
C6
C6
C6
C6
C6
6C
38
00
00
ENDCHAR
STARTCHAR U+00D3
ENCODING 211
SWIDTH 500 0
DWIDTH 8 0
BBX 8 16 0 -2
BITMAP
1C
38
00
38
6C
C6
C6
C6
C6
C6
C6
C6
6C
38
00
00
ENDCHAR
STARTCHAR U+00D4
ENCODING 212
SWIDTH 500 0
DWIDTH 8 0
BBX 8 16 0 -2
BITMAP
38
6C
00
38
6C
C6
C6
C6
C6
C6
C6
C6
6C
38
00
00
ENDCHAR
STARTCHAR U+00D5
ENCODING 213
SWIDTH 500 0
DWIDTH 8 0
BBX 8 16 0 -2
BITMAP
76
DC
00
38
6C
C6
C6
C6
C6
C6
C6
C6
6C
38
00
00
ENDCHAR
STARTCHAR U+00D6
ENCODING 214
SWIDTH 500 0
DWIDTH 8 0
BBX 8 16 0 -2
BITMAP
6C
6C
00
38
6C
C6
C6
C6
C6
C6
C6
C6
6C
38
00
00
ENDCHAR
STARTCHAR U+00D7
ENCODING 215
SWIDTH 500 0
DWIDTH 8 0
BBX 8 16 0 -2
BITMAP
00
00
00
00
00
00
C6
6C
38
10
38
6C
C6
00
00
00
ENDCHAR
STARTCHAR U+00D8
ENCODING 216
SWIDTH 500 0
DWIDTH 8 0
BBX 8 16 0 -2
BITMAP
00
00
00
3A
6E
CC
CE
DE
D6
D6
F6
66
EC
B8
00
00
ENDCHAR
STARTCHAR U+00D9
ENCODING 217
SWIDTH 500 0
DWIDTH 8 0
BBX 8 16 0 -2
BITMAP
70
38
00
C6
C6
C6
C6
C6
C6
C6
C6
C6
C6
7C
00
00
ENDCHAR
STARTCHAR U+00DA
ENCODING 218
SWIDTH 500 0
DWIDTH 8 0
BBX 8 16 0 -2
BITMAP
1C
38
00
C6
C6
C6
C6
C6
C6
C6
C6
C6
C6
7C
00
00
ENDCHAR
STARTCHAR U+00DB
ENCODING 219
SWIDTH 500 0
DWIDTH 8 0
BBX 8 16 0 -2
BITMAP
38
6C
00
C6
C6
C6
C6
C6
C6
C6
C6
C6
C6
7C
00
00
ENDCHAR
STARTCHAR U+00DC
ENCODING 220
SWIDTH 500 0
DWIDTH 8 0
BBX 8 16 0 -2
BITMAP
6C
6C
00
C6
C6
C6
C6
C6
C6
C6
C6
C6
C6
7C
00
00
ENDCHAR
STARTCHAR U+00DD
ENCODING 221
SWIDTH 500 0
DWIDTH 8 0
BBX 8 16 0 -2
BITMAP
1C
38
00
66
66
66
3C
3C
18
18
18
18
18
18
00
00
ENDCHAR
STARTCHAR U+00DE
ENCODING 222
SWIDTH 500 0
DWIDTH 8 0
BBX 8 16 0 -2
BITMAP
00
00
00
C0
C0
FC
C6
C6
C6
C6
C6
FC
C0
C0
00
00
ENDCHAR
STARTCHAR U+00DF
ENCODING 223
SWIDTH 500 0
DWIDTH 8 0
BBX 8 16 0 -2
BITMAP
00
00
00
78
CC
CC
CC
D8
CC
C6
C6
C6
F6
DC
00
00
ENDCHAR
STARTCHAR U+00E0
ENCODING 224
SWIDTH 500 0
DWIDTH 8 0
BBX 8 16 0 -2
BITMAP
00
00
00
38
1C
00
3C
66
06
3E
66
66
66
3E
00
00
ENDCHAR
STARTCHAR U+00E1
ENCODING 225
SWIDTH 500 0
DWIDTH 8 0
BBX 8 16 0 -2
BITMAP
00
00
00
1C
38
00
3C
66
06
3E
66
66
66
3E
00
00
ENDCHAR
STARTCHAR U+00E2
ENCODING 226
SWIDTH 500 0
DWIDTH 8 0
BBX 8 16 0 -2
BITMAP
00
00
00
1C
36
00
3C
66
06
3E
66
66
66
3E
00
00
ENDCHAR
STARTCHAR U+00E3
ENCODING 227
SWIDTH 500 0
DWIDTH 8 0
BBX 8 16 0 -2
BITMAP
00
00
00
76
DC
00
3C
66
06
3E
66
66
66
3E
00
00
ENDCHAR
STARTCHAR U+00E4
ENCODING 228
SWIDTH 500 0
DWIDTH 8 0
BBX 8 16 0 -2
BITMAP
00
00
00
66
66
00
3C
66
06
3E
66
66
66
3E
00
00
ENDCHAR
STARTCHAR U+00E5
ENCODING 229
SWIDTH 500 0
DWIDTH 8 0
BBX 8 16 0 -2
BITMAP
00
00
00
3C
2C
18
3C
66
06
3E
66
66
66
3E
00
00
ENDCHAR
STARTCHAR U+00E6
ENCODING 230
SWIDTH 500 0
DWIDTH 8 0
BBX 8 16 0 -2
BITMAP
00
00
00
00
00
00
6C
DA
1A
7A
DE
D8
DA
6C
00
00
ENDCHAR
STARTCHAR U+00E7
ENCODING 231
SWIDTH 500 0
DWIDTH 8 0
BBX 8 16 0 -2
BITMAP
00
00
00
00
00
7C
C6
C0
C0
C0
C0
C6
7C
18
0C
38
ENDCHAR
STARTCHAR U+00E8
ENCODING 232
SWIDTH 500 0
DWIDTH 8 0
BBX 8 16 0 -2
BITMAP
00
00
00
70
38
00
7C
C6
C6
FE
C0
C0
C6
7C
00
00
ENDCHAR
STARTCHAR U+00E9
ENCODING 233
SWIDTH 500 0
DWIDTH 8 0
BBX 8 16 0 -2
BITMAP
00
00
00
1C
38
00
7C
C6
C6
FE
C0
C0
C6
7C
00
00
ENDCHAR
STARTCHAR U+00EA
ENCODING 234
SWIDTH 500 0
DWIDTH 8 0
BBX 8 16 0 -2
BITMAP
00
00
00
38
6C
00
7C
C6
C6
FE
C0
C0
C6
7C
00
00
ENDCHAR
STARTCHAR U+00EB
ENCODING 235
SWIDTH 500 0
DWIDTH 8 0
BBX 8 16 0 -2
BITMAP
00
00
00
6C
6C
00
7C
C6
C6
FE
C0
C0
C6
7C
00
00
ENDCHAR
STARTCHAR U+00EC
ENCODING 236
SWIDTH 500 0
DWIDTH 8 0
BBX 8 16 0 -2
BITMAP
00
00
00
38
1C
00
18
18
18
18
18
18
18
18
00
00
ENDCHAR
STARTCHAR U+00ED
ENCODING 237
SWIDTH 500 0
DWIDTH 8 0
BBX 8 16 0 -2
BITMAP
00
00
00
1C
38
00
18
18
18
18
18
18
18
18
00
00
ENDCHAR
STARTCHAR U+00EE
ENCODING 238
SWIDTH 500 0
DWIDTH 8 0
BBX 8 16 0 -2
BITMAP
00
00
00
1C
36
00
18
18
18
18
18
18
18
18
00
00
ENDCHAR
STARTCHAR U+00EF
ENCODING 239
SWIDTH 500 0
DWIDTH 8 0
BBX 8 16 0 -2
BITMAP
00
00
00
66
66
00
18
18
18
18
18
18
18
18
00
00
ENDCHAR
STARTCHAR U+00F0
ENCODING 240
SWIDTH 500 0
DWIDTH 8 0
BBX 8 16 0 -2
BITMAP
00
00
00
EC
38
EC
06
7E
C6
C6
C6
C6
C6
7C
00
00
ENDCHAR
STARTCHAR U+00F1
ENCODING 241
SWIDTH 500 0
DWIDTH 8 0
BBX 8 16 0 -2
BITMAP
00
00
00
76
DC
00
DC
E6
C6
C6
C6
C6
C6
C6
00
00
ENDCHAR
STARTCHAR U+00F2
ENCODING 242
SWIDTH 500 0
DWIDTH 8 0
BBX 8 16 0 -2
BITMAP
00
00
00
70
38
00
7C
C6
C6
C6
C6
C6
C6
7C
00
00
ENDCHAR
STARTCHAR U+00F3
ENCODING 243
SWIDTH 500 0
DWIDTH 8 0
BBX 8 16 0 -2
BITMAP
00
00
00
1C
38
00
7C
C6
C6
C6
C6
C6
C6
7C
00
00
ENDCHAR
STARTCHAR U+00F4
ENCODING 244
SWIDTH 500 0
DWIDTH 8 0
BBX 8 16 0 -2
BITMAP
00
00
00
38
6C
00
7C
C6
C6
C6
C6
C6
C6
7C
00
00
ENDCHAR
STARTCHAR U+00F5
ENCODING 245
SWIDTH 500 0
DWIDTH 8 0
BBX 8 16 0 -2
BITMAP
00
00
00
76
DC
00
7C
C6
C6
C6
C6
C6
C6
7C
00
00
ENDCHAR
STARTCHAR U+00F6
ENCODING 246
SWIDTH 500 0
DWIDTH 8 0
BBX 8 16 0 -2
BITMAP
00
00
00
6C
6C
00
7C
C6
C6
C6
C6
C6
C6
7C
00
00
ENDCHAR
STARTCHAR U+00F7
ENCODING 247
SWIDTH 500 0
DWIDTH 8 0
BBX 8 16 0 -2
BITMAP
00
00
00
18
18
00
00
7E
00
00
18
18
00
00
00
00
ENDCHAR
STARTCHAR U+00F8
ENCODING 248
SWIDTH 500 0
DWIDTH 8 0
BBX 8 16 0 -2
BITMAP
00
00
00
00
06
06
7C
CE
DE
D6
D6
F6
E6
7C
C0
C0
ENDCHAR
STARTCHAR U+00F9
ENCODING 249
SWIDTH 500 0
DWIDTH 8 0
BBX 8 16 0 -2
BITMAP
00
00
00
38
1C
00
66
66
66
66
66
66
66
3E
00
00
ENDCHAR
STARTCHAR U+00FA
ENCODING 250
SWIDTH 500 0
DWIDTH 8 0
BBX 8 16 0 -2
BITMAP
00
00
00
1C
38
00
66
66
66
66
66
66
66
3E
00
00
ENDCHAR
STARTCHAR U+00FB
ENCODING 251
SWIDTH 500 0
DWIDTH 8 0
BBX 8 16 0 -2
BITMAP
00
00
00
1C
36
00
66
66
66
66
66
66
66
3E
00
00
ENDCHAR
STARTCHAR U+00FC
ENCODING 252
SWIDTH 500 0
DWIDTH 8 0
BBX 8 16 0 -2
BITMAP
00
00
00
66
66
00
66
66
66
66
66
66
66
3E
00
00
ENDCHAR
STARTCHAR U+00FD
ENCODING 253
SWIDTH 500 0
DWIDTH 8 0
BBX 8 16 0 -2
BITMAP
00
00
00
1C
38
00
C6
C6
6C
6C
38
38
18
30
30
E0
ENDCHAR
STARTCHAR U+00FE
ENCODING 254
SWIDTH 500 0
DWIDTH 8 0
BBX 8 16 0 -2
BITMAP
00
00
00
C0
C0
C0
FC
C6
C6
C6
C6
C6
FC
C0
C0
C0
ENDCHAR
STARTCHAR U+00FF
ENCODING 255
SWIDTH 500 0
DWIDTH 8 0
BBX 8 16 0 -2
BITMAP
00
00
00
6C
6C
00
C6
C6
6C
6C
38
38
18
30
30
E0
ENDCHAR
STARTCHAR U+0153
ENCODING 339
SWIDTH 500 0
DWIDTH 8 0
BBX 8 16 0 -2
BITMAP
00
00
00
6C
FE
B6
B6
BE
B0
B0
B0
B6
FE
6C
00
00
ENDCHAR
STARTCHAR U+0400
ENCODING 1024
SWIDTH 500 0
DWIDTH 8 0
BBX 7 13 0 0
BITMAP
60
18
00
FE
C0
C0
C0
FC
C0
C0
C0
C0
FE
ENDCHAR
STARTCHAR U+0401
ENCODING 1025
SWIDTH 500 0
DWIDTH 8 0
BBX 7 13 0 0
BITMAP
48
48
00
FE
C0
C0
C0
FC
C0
C0
C0
C0
FE
ENDCHAR
STARTCHAR U+0402
ENCODING 1026
SWIDTH 500 0
DWIDTH 8 0
BBX 7 10 0 0
BITMAP
FC
20
20
20
3C
22
22
22
22
2C
ENDCHAR
STARTCHAR U+0403
ENCODING 1027
SWIDTH 500 0
DWIDTH 8 0
BBX 7 14 0 0
BITMAP
18
60
00
00
FE
C0
C0
C0
C0
C0
C0
C0
C0
C0
ENDCHAR
STARTCHAR U+0404
ENCODING 1028
SWIDTH 500 0
DWIDTH 8 0
BBX 6 10 0 0
BITMAP
38
44
C0
C0
F8
C0
C0
C0
44
38
ENDCHAR
STARTCHAR U+0405
ENCODING 1029
SWIDTH 500 0
DWIDTH 8 0
BBX 6 10 0 0
BITMAP
78
84
84
80
60
18
04
84
84
78
ENDCHAR
STARTCHAR U+0406
ENCODING 1030
SWIDTH 500 0
DWIDTH 8 0
BBX 5 10 1 0
BITMAP
F8
20
20
20
20
20
20
20
20
F8
ENDCHAR
STARTCHAR U+0407
ENCODING 1031
SWIDTH 500 0
DWIDTH 8 0
BBX 5 14 1 0
BITMAP
90
90
00
00
F8
20
20
20
20
20
20
20
20
F8
ENDCHAR
STARTCHAR U+0408
ENCODING 1032
SWIDTH 500 0
DWIDTH 8 0
BBX 7 10 0 0
BITMAP
3E
08
08
08
08
08
08
88
88
70
ENDCHAR
STARTCHAR U+0409
ENCODING 1033
SWIDTH 500 0
DWIDTH 8 0
BBX 8 10 0 0
BITMAP
78
48
48
48
4F
49
49
49
49
8F
ENDCHAR
STARTCHAR U+040A
ENCODING 1034
SWIDTH 500 0
DWIDTH 8 0
BBX 7 10 0 0
BITMAP
90
90
90
90
FC
92
92
92
92
9C
ENDCHAR
STARTCHAR U+040B
ENCODING 1035
SWIDTH 500 0
DWIDTH 8 0
BBX 7 10 0 0
BITMAP
FC
20
20
20
3C
22
22
22
22
22
ENDCHAR
STARTCHAR U+040C
ENCODING 1036
SWIDTH 500 0
DWIDTH 8 0
BBX 7 14 0 0
BITMAP
0C
30
00
00
C6
C8
C8
D0
D0
E0
D0
C8
C4
C2
ENDCHAR
STARTCHAR U+040D
ENCODING 1037
SWIDTH 500 0
DWIDTH 8 0
BBX 6 13 0 0
BITMAP
60
18
00
84
84
84
8C
8C
94
94
A4
C4
C4
ENDCHAR
STARTCHAR U+040E
ENCODING 1038
SWIDTH 500 0
DWIDTH 8 0
BBX 7 14 0 0
BITMAP
84
84
78
00
82
82
44
44
28
28
10
10
20
60
ENDCHAR
STARTCHAR U+040F
ENCODING 1039
SWIDTH 500 0
DWIDTH 8 0
BBX 7 12 0 -2
BITMAP
C2
C2
C2
C2
C2
C2
C2
C2
C2
FE
10
10
ENDCHAR
STARTCHAR U+0410
ENCODING 1040
SWIDTH 500 0
DWIDTH 8 0
BBX 6 10 0 0
BITMAP
30
48
48
84
84
FC
84
84
84
84
ENDCHAR
STARTCHAR U+0411
ENCODING 1041
SWIDTH 500 0
DWIDTH 8 0
BBX 6 10 0 0
BITMAP
F8
80
80
80
F8
84
84
84
84
FC
ENDCHAR
STARTCHAR U+0412
ENCODING 1042
SWIDTH 500 0
DWIDTH 8 0
BBX 6 10 0 0
BITMAP
F8
C4
C4
C4
FC
C4
C4
C4
C4
F8
ENDCHAR
STARTCHAR U+0413
ENCODING 1043
SWIDTH 500 0
DWIDTH 8 0
BBX 7 10 0 0
BITMAP
FE
C0
C0
C0
C0
C0
C0
C0
C0
C0
ENDCHAR
STARTCHAR U+0414
ENCODING 1044
SWIDTH 500 0
DWIDTH 8 0
BBX 8 12 0 -2
BITMAP
0E
12
12
12
22
22
22
42
42
FF
C1
C1
ENDCHAR
STARTCHAR U+0415
ENCODING 1045
SWIDTH 500 0
DWIDTH 8 0
BBX 7 10 0 0
BITMAP
FE
C0
C0
C0
FC
C0
C0
C0
C0
FE
ENDCHAR
STARTCHAR U+0416
ENCODING 1046
SWIDTH 500 0
DWIDTH 8 0
BBX 7 10 0 0
BITMAP
92
92
54
54
38
38
54
54
92
92
ENDCHAR
STARTCHAR U+0417
ENCODING 1047
SWIDTH 500 0
DWIDTH 8 0
BBX 7 10 0 0
BITMAP
78
86
06
06
78
04
06
06
86
78
ENDCHAR
STARTCHAR U+0418
ENCODING 1048
SWIDTH 500 0
DWIDTH 8 0
BBX 7 10 0 0
BITMAP
C2
C6
C6
CA
CA
D2
D2
E2
E2
C2
ENDCHAR
STARTCHAR U+0419
ENCODING 1049
SWIDTH 500 0
DWIDTH 8 0
BBX 7 13 0 0
BITMAP
24
18
00
C2
C6
C6
CA
CA
D2
D2
E2
E2
C2
ENDCHAR
STARTCHAR U+041A
ENCODING 1050
SWIDTH 500 0
DWIDTH 8 0
BBX 7 10 0 0
BITMAP
C6
C8
C8
D0
D0
E0
D0
C8
C4
C2
ENDCHAR
STARTCHAR U+041B
ENCODING 1051
SWIDTH 500 0
DWIDTH 8 0
BBX 6 10 0 0
BITMAP
3C
24
24
24
24
24
24
44
44
C4
ENDCHAR
STARTCHAR U+041C
ENCODING 1052
SWIDTH 500 0
DWIDTH 8 0
BBX 7 10 0 0
BITMAP
C2
C2
E6
E6
DA
DA
C2
C2
C2
C2
ENDCHAR
STARTCHAR U+041D
ENCODING 1053
SWIDTH 500 0
DWIDTH 8 0
BBX 7 10 0 0
BITMAP
C2
C2
C2
C2
FE
C2
C2
C2
C2
C2
ENDCHAR
STARTCHAR U+041E
ENCODING 1054
SWIDTH 500 0
DWIDTH 8 0
BBX 7 10 0 0
BITMAP
3C
C2
C2
C2
C2
C2
C2
C2
C2
3C
ENDCHAR
STARTCHAR U+041F
ENCODING 1055
SWIDTH 500 0
DWIDTH 8 0
BBX 7 10 0 0
BITMAP
FE
C2
C2
C2
C2
C2
C2
C2
C2
C2
ENDCHAR
STARTCHAR U+0420
ENCODING 1056
SWIDTH 500 0
DWIDTH 8 0
BBX 6 10 0 0
BITMAP
F8
C4
C4
C4
F8
C0
C0
C0
C0
C0
ENDCHAR
STARTCHAR U+0421
ENCODING 1057
SWIDTH 500 0
DWIDTH 8 0
BBX 7 10 0 0
BITMAP
3C
42
C2
C0
C0
C0
C0
C2
42
3C
ENDCHAR
STARTCHAR U+0422
ENCODING 1058
SWIDTH 500 0
DWIDTH 8 0
BBX 7 10 0 0
BITMAP
FE
10
10
10
10
10
10
10
10
10
ENDCHAR
STARTCHAR U+0423
ENCODING 1059
SWIDTH 500 0
DWIDTH 8 0
BBX 8 10 0 0
BITMAP
C1
C1
22
22
14
14
08
08
10
30
ENDCHAR
STARTCHAR U+0424
ENCODING 1060
SWIDTH 500 0
DWIDTH 8 0
BBX 8 11 0 0
BITMAP
08
3E
49
C9
C9
C9
49
3E
08
08
08
ENDCHAR
STARTCHAR U+0425
ENCODING 1061
SWIDTH 500 0
DWIDTH 8 0
BBX 6 10 0 0
BITMAP
84
84
48
48
30
30
48
48
84
84
ENDCHAR
STARTCHAR U+0426
ENCODING 1062
SWIDTH 500 0
DWIDTH 8 0
BBX 8 12 0 -2
BITMAP
C2
C2
C2
C2
C2
C2
C2
C2
C2
FF
01
01
ENDCHAR
STARTCHAR U+0427
ENCODING 1063
SWIDTH 500 0
DWIDTH 8 0
BBX 7 10 0 0
BITMAP
42
C2
C2
C2
C2
46
3A
02
02
02
ENDCHAR
STARTCHAR U+0428
ENCODING 1064
SWIDTH 500 0
DWIDTH 8 0
BBX 8 10 0 0
BITMAP
C9
C9
C9
C9
C9
C9
C9
C9
C9
FF
ENDCHAR
STARTCHAR U+0429
ENCODING 1065
SWIDTH 500 0
DWIDTH 8 0
BBX 8 12 0 -2
BITMAP
92
92
92
92
92
92
92
92
92
FF
01
01
ENDCHAR
STARTCHAR U+042A
ENCODING 1066
SWIDTH 500 0
DWIDTH 8 0
BBX 7 10 0 0
BITMAP
E0
20
20
20
3C
22
22
22
22
3C
ENDCHAR
STARTCHAR U+042B
ENCODING 1067
SWIDTH 500 0
DWIDTH 8 0
BBX 8 11 0 0
BITMAP
E7
42
42
42
42
72
4A
4A
4A
4A
77
ENDCHAR
STARTCHAR U+042C
ENCODING 1068
SWIDTH 500 0
DWIDTH 8 0
BBX 7 10 0 0
BITMAP
C0
C0
C0
C0
FC
C2
C2
C2
C2
FC
ENDCHAR
STARTCHAR U+042D
ENCODING 1069
SWIDTH 500 0
DWIDTH 8 0
BBX 6 10 0 0
BITMAP
70
88
04
04
7C
04
04
04
88
70
ENDCHAR
STARTCHAR U+042E
ENCODING 1070
SWIDTH 500 0
DWIDTH 8 0
BBX 7 10 0 0
BITMAP
CC
D2
D2
D2
F2
D2
D2
D2
D2
CC
ENDCHAR
STARTCHAR U+042F
ENCODING 1071
SWIDTH 500 0
DWIDTH 8 0
BBX 6 10 0 0
BITMAP
7C
84
84
84
7C
24
44
44
84
84
ENDCHAR
STARTCHAR U+0430
ENCODING 1072
SWIDTH 500 0
DWIDTH 8 0
BBX 6 8 0 0
BITMAP
78
84
04
7C
84
84
8C
74
ENDCHAR
STARTCHAR U+0431
ENCODING 1073
SWIDTH 500 0
DWIDTH 8 0
BBX 7 11 0 0
BITMAP
02
3C
C0
FC
C2
C2
C2
C2
C2
C2
3C
ENDCHAR
STARTCHAR U+0432
ENCODING 1074
SWIDTH 500 0
DWIDTH 8 0
BBX 7 8 0 0
BITMAP
FC
C2
C2
FC
C2
C2
C2
FC
ENDCHAR
STARTCHAR U+0433
ENCODING 1075
SWIDTH 500 0
DWIDTH 8 0
BBX 6 8 0 0
BITMAP
FC
84
80
80
80
80
80
80
ENDCHAR
STARTCHAR U+0434
ENCODING 1076
SWIDTH 500 0
DWIDTH 8 0
BBX 7 9 0 -1
BITMAP
3C
24
44
44
84
84
84
FE
82
ENDCHAR
STARTCHAR U+0435
ENCODING 1077
SWIDTH 500 0
DWIDTH 8 0
BBX 6 8 0 0
BITMAP
7C
84
84
FC
80
80
84
78
ENDCHAR
STARTCHAR U+0436
ENCODING 1078
SWIDTH 500 0
DWIDTH 8 0
BBX 7 8 0 0
BITMAP
92
92
54
38
38
54
92
92
ENDCHAR
STARTCHAR U+0437
ENCODING 1079
SWIDTH 500 0
DWIDTH 8 0
BBX 6 8 0 0
BITMAP
78
84
04
78
04
04
84
78
ENDCHAR
STARTCHAR U+0438
ENCODING 1080
SWIDTH 500 0
DWIDTH 8 0
BBX 7 8 0 0
BITMAP
C6
C6
CA
CA
D2
D2
E2
E2
ENDCHAR
STARTCHAR U+0439
ENCODING 1081
SWIDTH 500 0
DWIDTH 8 0
BBX 7 11 0 0
BITMAP
44
38
00
C6
C6
CA
CA
D2
D2
E2
E2
ENDCHAR
STARTCHAR U+043A
ENCODING 1082
SWIDTH 500 0
DWIDTH 8 0
BBX 7 8 0 0
BITMAP
C6
C8
D0
E0
D0
C8
C4
C2
ENDCHAR
STARTCHAR U+043B
ENCODING 1083
SWIDTH 500 0
DWIDTH 8 0
BBX 7 8 0 0
BITMAP
3E
22
22
22
22
42
42
82
ENDCHAR
STARTCHAR U+043C
ENCODING 1084
SWIDTH 500 0
DWIDTH 8 0
BBX 7 8 0 0
BITMAP
C2
E6
E6
DA
DA
C2
C2
C2
ENDCHAR
STARTCHAR U+043D
ENCODING 1085
SWIDTH 500 0
DWIDTH 8 0
BBX 7 8 0 0
BITMAP
C2
C2
C2
FE
C2
C2
C2
C2
ENDCHAR
STARTCHAR U+043E
ENCODING 1086
SWIDTH 500 0
DWIDTH 8 0
BBX 7 8 0 0
BITMAP
3C
42
C2
C2
C2
C2
42
3C
ENDCHAR
STARTCHAR U+043F
ENCODING 1087
SWIDTH 500 0
DWIDTH 8 0
BBX 7 8 0 0
BITMAP
FE
C2
C2
C2
C2
C2
C2
C2
ENDCHAR
STARTCHAR U+0440
ENCODING 1088
SWIDTH 500 0
DWIDTH 8 0
BBX 7 10 0 -2
BITMAP
DC
E2
C2
C2
C2
C2
E2
DC
C0
C0
ENDCHAR
STARTCHAR U+0441
ENCODING 1089
SWIDTH 500 0
DWIDTH 8 0
BBX 7 8 0 0
BITMAP
3C
42
C0
C0
C0
C0
42
3C
ENDCHAR
STARTCHAR U+0442
ENCODING 1090
SWIDTH 500 0
DWIDTH 8 0
BBX 7 8 0 0
BITMAP
FE
10
10
10
10
10
10
10
ENDCHAR
STARTCHAR U+0443
ENCODING 1091
SWIDTH 500 0
DWIDTH 8 0
BBX 6 10 0 -2
BITMAP
84
84
48
48
30
30
20
20
20
E0
ENDCHAR
STARTCHAR U+0444
ENCODING 1092
SWIDTH 500 0
DWIDTH 8 0
BBX 8 13 0 -2
BITMAP
08
08
08
3E
49
C9
C9
C9
C9
49
3E
08
08
ENDCHAR
STARTCHAR U+0445
ENCODING 1093
SWIDTH 500 0
DWIDTH 8 0
BBX 6 8 0 0
BITMAP
84
84
48
30
30
48
84
84
ENDCHAR
STARTCHAR U+0446
ENCODING 1094
SWIDTH 500 0
DWIDTH 8 0
BBX 7 10 0 -2
BITMAP
C4
C4
C4
C4
C4
C4
C4
FE
02
02
ENDCHAR
STARTCHAR U+0447
ENCODING 1095
SWIDTH 500 0
DWIDTH 8 0
BBX 6 8 0 0
BITMAP
C4
C4
C4
C4
CC
34
04
04
ENDCHAR
STARTCHAR U+0448
ENCODING 1096
SWIDTH 500 0
DWIDTH 8 0
BBX 8 8 0 0
BITMAP
C9
C9
C9
C9
C9
C9
C9
FF
ENDCHAR
STARTCHAR U+0449
ENCODING 1097
SWIDTH 500 0
DWIDTH 8 0
BBX 8 10 0 -2
BITMAP
D2
D2
D2
D2
D2
D2
D2
FF
01
01
ENDCHAR
STARTCHAR U+044A
ENCODING 1098
SWIDTH 500 0
DWIDTH 8 0
BBX 7 8 0 0
BITMAP
E0
20
20
3C
32
32
32
3C
ENDCHAR
STARTCHAR U+044B
ENCODING 1099
SWIDTH 500 0
DWIDTH 8 0
BBX 7 8 0 0
BITMAP
C2
C2
C2
F2
CA
CA
CA
F2
ENDCHAR
STARTCHAR U+044C
ENCODING 1100
SWIDTH 500 0
DWIDTH 8 0
BBX 7 8 0 0
BITMAP
C0
C0
C0
FC
C2
C2
C2
FC
ENDCHAR
STARTCHAR U+044D
ENCODING 1101
SWIDTH 500 0
DWIDTH 8 0
BBX 6 8 0 0
BITMAP
70
88
04
7C
04
04
88
70
ENDCHAR
STARTCHAR U+044E
ENCODING 1102
SWIDTH 500 0
DWIDTH 8 0
BBX 7 8 0 0
BITMAP
CC
D2
D2
F2
D2
D2
D2
CC
ENDCHAR
STARTCHAR U+044F
ENCODING 1103
SWIDTH 500 0
DWIDTH 8 0
BBX 6 8 0 0
BITMAP
7C
84
84
84
7C
24
44
84
ENDCHAR
STARTCHAR U+0450
ENCODING 1104
SWIDTH 500 0
DWIDTH 8 0
BBX 7 12 0 0
BITMAP
60
18
00
00
3C
42
C2
FE
C0
C0
42
3C
ENDCHAR
STARTCHAR U+0451
ENCODING 1105
SWIDTH 500 0
DWIDTH 8 0
BBX 7 11 0 0
BITMAP
24
24
00
3C
42
C2
FE
C0
C0
42
3C
ENDCHAR
STARTCHAR U+0452
ENCODING 1106
SWIDTH 500 0
DWIDTH 8 0
BBX 7 13 0 -2
BITMAP
40
F8
40
5C
62
42
42
42
42
42
42
02
0C
ENDCHAR
STARTCHAR U+0453
ENCODING 1107
SWIDTH 500 0
DWIDTH 8 0
BBX 7 12 0 0
BITMAP
0C
30
00
00
FE
C0
C0
C0
C0
C0
C0
C0
ENDCHAR
STARTCHAR U+0454
ENCODING 1108
SWIDTH 500 0
DWIDTH 8 0
BBX 7 8 0 0
BITMAP
1C
22
40
FC
C0
40
22
1C
ENDCHAR
STARTCHAR U+0455
ENCODING 1109
SWIDTH 500 0
DWIDTH 8 0
BBX 6 8 0 0
BITMAP
78
84
80
60
18
04
84
78
ENDCHAR
STARTCHAR U+0456
ENCODING 1110
SWIDTH 500 0
DWIDTH 8 0
BBX 5 11 1 0
BITMAP
20
20
00
60
20
20
20
20
20
20
F8
ENDCHAR
STARTCHAR U+0457
ENCODING 1111
SWIDTH 500 0
DWIDTH 8 0
BBX 5 11 1 0
BITMAP
90
90
00
60
20
20
20
20
20
20
F8
ENDCHAR
STARTCHAR U+0458
ENCODING 1112
SWIDTH 500 0
DWIDTH 8 0
BBX 5 13 0 -2
BITMAP
08
08
00
18
08
08
08
08
08
08
08
90
60
ENDCHAR
STARTCHAR U+0459
ENCODING 1113
SWIDTH 500 0
DWIDTH 8 0
BBX 8 8 0 0
BITMAP
78
48
48
4E
49
49
49
8E
ENDCHAR
STARTCHAR U+045A
ENCODING 1114
SWIDTH 500 0
DWIDTH 8 0
BBX 8 8 0 0
BITMAP
C8
C8
C8
FE
C9
C9
C9
CE
ENDCHAR
STARTCHAR U+045B
ENCODING 1115
SWIDTH 500 0
DWIDTH 8 0
BBX 7 11 0 0
BITMAP
40
F8
40
5C
62
42
42
42
42
42
42
ENDCHAR
STARTCHAR U+045C
ENCODING 1116
SWIDTH 500 0
DWIDTH 8 0
BBX 7 12 0 0
BITMAP
18
60
00
00
C6
C8
D0
E0
D0
C8
C4
C2
ENDCHAR
STARTCHAR U+045D
ENCODING 1117
SWIDTH 500 0
DWIDTH 8 0
BBX 7 12 0 0
BITMAP
60
18
00
00
C6
C6
CA
CA
D2
D2
E2
E2
ENDCHAR
STARTCHAR U+045E
ENCODING 1118
SWIDTH 500 0
DWIDTH 8 0
BBX 6 14 0 -2
BITMAP
84
84
78
00
84
84
48
48
30
30
20
20
40
80
ENDCHAR
STARTCHAR U+045F
ENCODING 1119
SWIDTH 500 0
DWIDTH 8 0
BBX 6 10 1 -2
BITMAP
C4
C4
C4
C4
C4
C4
C4
FC
10
10
ENDCHAR
STARTCHAR U+0460
ENCODING 1120
SWIDTH 500 0
DWIDTH 8 0
BBX 8 10 0 0
BITMAP
C9
C9
C9
C9
C9
C9
C9
C9
DA
24
ENDCHAR
STARTCHAR U+0461
ENCODING 1121
SWIDTH 500 0
DWIDTH 8 0
BBX 8 7 0 0
BITMAP
C9
C9
C9
C9
C9
DA
24
ENDCHAR
STARTCHAR U+0462
ENCODING 1122
SWIDTH 500 0
DWIDTH 8 0
BBX 7 10 0 0
BITMAP
20
FC
20
20
3C
22
22
22
22
1C
ENDCHAR
STARTCHAR U+0463
ENCODING 1123
SWIDTH 500 0
DWIDTH 8 0
BBX 6 10 0 0
BITMAP
40
40
F0
40
40
78
44
44
44
78
ENDCHAR
STARTCHAR U+0464
ENCODING 1124
SWIDTH 500 0
DWIDTH 8 0
BBX 8 10 0 0
BITMAP
C6
C9
D0
D0
FE
D0
D0
D0
C9
C6
ENDCHAR
STARTCHAR U+0465
ENCODING 1125
SWIDTH 500 0
DWIDTH 8 0
BBX 8 8 0 0
BITMAP
C6
C9
D0
FE
D0
D0
C9
C6
ENDCHAR
STARTCHAR U+0466
ENCODING 1126
SWIDTH 500 0
DWIDTH 8 0
BBX 7 10 0 0
BITMAP
10
10
28
28
44
7C
54
92
92
92
ENDCHAR
STARTCHAR U+0467
ENCODING 1127
SWIDTH 500 0
DWIDTH 8 0
BBX 7 8 0 0
BITMAP
10
28
28
44
7C
92
92
92
ENDCHAR
STARTCHAR U+0468
ENCODING 1128
SWIDTH 500 0
DWIDTH 8 0
BBX 8 10 0 0
BITMAP
C8
C8
D4
D4
D2
F6
EA
C9
C9
C9
ENDCHAR
STARTCHAR U+0469
ENCODING 1129
SWIDTH 500 0
DWIDTH 8 0
BBX 8 8 0 0
BITMAP
C8
D4
D4
D2
F6
C9
C9
C9
ENDCHAR
STARTCHAR U+046A
ENCODING 1130
SWIDTH 500 0
DWIDTH 8 0
BBX 7 10 0 0
BITMAP
7C
64
64
28
10
38
54
92
92
92
ENDCHAR
STARTCHAR U+046B
ENCODING 1131
SWIDTH 500 0
DWIDTH 8 0
BBX 7 8 0 0
BITMAP
7C
44
14
10
7C
92
92
92
ENDCHAR
STARTCHAR U+046C
ENCODING 1132
SWIDTH 500 0
DWIDTH 8 0
BBX 8 10 0 0
BITMAP
DF
D1
D1
CA
F4
CE
D5
D5
D5
D5
ENDCHAR
STARTCHAR U+046D
ENCODING 1133
SWIDTH 500 0
DWIDTH 8 0
BBX 8 8 0 0
BITMAP
DF
D1
CA
F4
CE
D5
D5
D5
ENDCHAR
STARTCHAR U+046E
ENCODING 1134
SWIDTH 500 0
DWIDTH 8 0
BBX 7 14 0 -2
BITMAP
48
30
78
84
04
04
7C
08
06
06
06
F8
80
80
ENDCHAR
STARTCHAR U+046F
ENCODING 1135
SWIDTH 500 0
DWIDTH 8 0
BBX 7 13 0 -2
BITMAP
24
18
00
7C
86
06
3C
08
06
06
7C
80
80
ENDCHAR
STARTCHAR U+0470
ENCODING 1136
SWIDTH 500 0
DWIDTH 8 0
BBX 8 10 0 0
BITMAP
C9
C9
C9
C9
C9
3E
08
08
08
08
ENDCHAR
STARTCHAR U+0471
ENCODING 1137
SWIDTH 500 0
DWIDTH 8 0
BBX 8 8 0 -2
BITMAP
C9
C9
C9
C9
C9
3E
08
08
ENDCHAR
STARTCHAR U+0472
ENCODING 1138
SWIDTH 500 0
DWIDTH 8 0
BBX 7 10 0 0
BITMAP
3C
C2
C2
C2
FE
C2
C2
C2
C2
3C
ENDCHAR
STARTCHAR U+0473
ENCODING 1139
SWIDTH 500 0
DWIDTH 8 0
BBX 7 8 0 0
BITMAP
3C
C2
C2
FE
C2
C2
C2
3C
ENDCHAR
STARTCHAR U+0474
ENCODING 1140
SWIDTH 500 0
DWIDTH 8 0
BBX 8 10 0 0
BITMAP
C3
C4
C4
C4
28
28
28
10
10
10
ENDCHAR
STARTCHAR U+0475
ENCODING 1141
SWIDTH 500 0
DWIDTH 8 0
BBX 7 8 0 0
BITMAP
C6
C8
C8
28
28
28
10
10
ENDCHAR
STARTCHAR U+0476
ENCODING 1142
SWIDTH 500 0
DWIDTH 8 0
BBX 8 14 0 0
BITMAP
C6
21
00
00
C3
C4
C4
C4
28
28
28
10
10
10
ENDCHAR
STARTCHAR U+0477
ENCODING 1143
SWIDTH 500 0
DWIDTH 8 0
BBX 8 12 0 0
BITMAP
C6
21
00
00
C6
C8
C8
28
28
28
10
10
ENDCHAR
STARTCHAR U+0478
ENCODING 1144
SWIDTH 500 0
DWIDTH 8 0
BBX 8 12 0 -2
BITMAP
20
D0
D9
D9
D9
D5
D6
D4
D4
24
08
08
ENDCHAR
STARTCHAR U+0479
ENCODING 1145
SWIDTH 500 0
DWIDTH 8 0
BBX 8 10 0 -2
BITMAP
29
D9
D9
D5
D6
D4
D4
24
08
08
ENDCHAR
STARTCHAR U+047A
ENCODING 1146
SWIDTH 500 0
DWIDTH 8 0
BBX 8 12 0 -1
BITMAP
08
3E
C9
C1
C1
C1
C1
C1
C1
C9
3E
08
ENDCHAR
STARTCHAR U+047B
ENCODING 1147
SWIDTH 500 0
DWIDTH 8 0
BBX 8 10 0 -1
BITMAP
08
3E
C9
C1
C1
C1
C1
C9
3E
08
ENDCHAR
STARTCHAR U+047C
ENCODING 1148
SWIDTH 500 0
DWIDTH 8 0
BBX 8 14 0 0
BITMAP
78
86
30
08
10
00
36
C1
C1
C9
C9
C9
C9
36
ENDCHAR
STARTCHAR U+047D
ENCODING 1149
SWIDTH 500 0
DWIDTH 8 0
BBX 8 11 0 0
BITMAP
78
86
30
04
08
00
22
C1
C9
C9
36
ENDCHAR
STARTCHAR U+047E
ENCODING 1150
SWIDTH 500 0
DWIDTH 8 0
BBX 7 13 1 0
BITMAP
FE
10
00
92
92
92
92
92
92
92
92
B4
48
ENDCHAR
STARTCHAR U+047F
ENCODING 1151
SWIDTH 500 0
DWIDTH 8 0
BBX 7 10 0 0
BITMAP
FE
10
00
92
92
92
92
92
B4
48
ENDCHAR
STARTCHAR U+0480
ENCODING 1152
SWIDTH 500 0
DWIDTH 8 0
BBX 6 12 0 -2
BITMAP
78
84
84
80
80
80
80
80
78
08
08
08
ENDCHAR
STARTCHAR U+0481
ENCODING 1153
SWIDTH 500 0
DWIDTH 8 0
BBX 6 10 0 -2
BITMAP
F8
84
84
80
80
80
F8
08
08
08
ENDCHAR
STARTCHAR U+0482
ENCODING 1154
SWIDTH 500 0
DWIDTH 8 0
BBX 8 8 0 0
BITMAP
22
14
88
44
2A
11
28
02
ENDCHAR
STARTCHAR U+0483
ENCODING 1155
SWIDTH 500 0
DWIDTH 8 0
BBX 4 3 0 10
BITMAP
10
F0
80
ENDCHAR
STARTCHAR U+0484
ENCODING 1156
SWIDTH 500 0
DWIDTH 8 0
BBX 5 4 2 10
BITMAP
10
28
48
80
ENDCHAR
STARTCHAR U+0485
ENCODING 1157
SWIDTH 500 0
DWIDTH 8 0
BBX 4 3 0 10
BITMAP
70
80
60
ENDCHAR
STARTCHAR U+0486
ENCODING 1158
SWIDTH 500 0
DWIDTH 8 0
BBX 4 3 1 10
BITMAP
E0
10
60
ENDCHAR
STARTCHAR U+0487
ENCODING 1159
SWIDTH 500 0
DWIDTH 8 0
BBX 8 3 0 10
BITMAP
30
4C
83
ENDCHAR
STARTCHAR U+0488
ENCODING 1160
SWIDTH 1000 0
DWIDTH 16 0
BBX 14 14 0 -2
BITMAP
0100
0280
1010
2828
0000
0000
4008
A014
0000
0000
1010
2828
0100
0280
ENDCHAR
STARTCHAR U+0489
ENCODING 1161
SWIDTH 1000 0
DWIDTH 16 0
BBX 14 14 1 -2
BITMAP
0100
2108
1310
1860
0000
0000
E010
201C
0000
0000
0000
19B0
1110
2108
ENDCHAR
STARTCHAR U+048A
ENCODING 1162
SWIDTH 500 0
DWIDTH 8 0
BBX 8 15 0 -2
BITMAP
24
18
00
C2
C6
C6
CA
CA
D2
D2
E2
E2
C3
02
04
ENDCHAR
STARTCHAR U+048B
ENCODING 1163
SWIDTH 500 0
DWIDTH 8 0
BBX 8 14 0 -2
BITMAP
24
18
00
00
C6
C6
CA
CA
D2
D2
E2
E3
02
04
ENDCHAR
STARTCHAR U+048C
ENCODING 1164
SWIDTH 500 0
DWIDTH 8 0
BBX 6 10 0 0
BITMAP
40
E0
40
40
40
78
44
44
4C
78
ENDCHAR
STARTCHAR U+048D
ENCODING 1165
SWIDTH 500 0
DWIDTH 8 0
BBX 6 7 1 0
BITMAP
40
E0
40
78
44
44
78
ENDCHAR
STARTCHAR U+048E
ENCODING 1166
SWIDTH 500 0
DWIDTH 8 0
BBX 7 10 0 0
BITMAP
FC
C2
CA
C4
FA
C0
C0
C0
C0
C0
ENDCHAR
STARTCHAR U+048F
ENCODING 1167
SWIDTH 500 0
DWIDTH 8 0
BBX 7 10 0 -2
BITMAP
DC
E2
C2
C2
C2
CA
E4
DA
C0
C0
ENDCHAR
STARTCHAR U+0490
ENCODING 1168
SWIDTH 500 0
DWIDTH 8 0
BBX 7 12 0 0
BITMAP
02
02
FE
C0
C0
C0
C0
C0
C0
C0
C0
C0
ENDCHAR
STARTCHAR U+0491
ENCODING 1169
SWIDTH 500 0
DWIDTH 8 0
BBX 7 10 0 0
BITMAP
02
02
FE
C0
C0
C0
C0
C0
C0
C0
ENDCHAR
STARTCHAR U+0492
ENCODING 1170
SWIDTH 500 0
DWIDTH 8 0
BBX 7 10 0 0
BITMAP
3E
20
20
20
20
F8
20
20
20
20
ENDCHAR
STARTCHAR U+0493
ENCODING 1171
SWIDTH 500 0
DWIDTH 8 0
BBX 7 8 0 0
BITMAP
3E
20
20
20
F8
20
20
20
ENDCHAR
STARTCHAR U+0494
ENCODING 1172
SWIDTH 500 0
DWIDTH 8 0
BBX 7 11 0 -1
BITMAP
FE
C0
C0
C0
C0
FC
C2
C2
C2
C2
0C
ENDCHAR
STARTCHAR U+0495
ENCODING 1173
SWIDTH 500 0
DWIDTH 8 0
BBX 7 9 0 -1
BITMAP
FE
C0
C0
C0
FC
C2
C2
C2
0C
ENDCHAR
STARTCHAR U+0496
ENCODING 1174
SWIDTH 500 0
DWIDTH 8 0
BBX 8 11 0 -1
BITMAP
49
49
2A
2A
1C
1C
2A
2A
C9
C9
01
ENDCHAR
STARTCHAR U+0497
ENCODING 1175
SWIDTH 500 0
DWIDTH 8 0
BBX 8 9 0 -1
BITMAP
49
49
2A
1C
1C
2A
49
C9
01
ENDCHAR
STARTCHAR U+0498
ENCODING 1176
SWIDTH 500 0
DWIDTH 8 0
BBX 31 26 0 -2
BITMAP
00000002
00000000
00000000
00000000
00000000
00000000
00000000
00000000
00000000
00000000
00000000
00000000
00000000
00000000
78000000
84000000
04000000
04000000
7C000000
08000000
04000000
04000000
84000000
78000000
08000000
30000000
ENDCHAR
STARTCHAR U+0499
ENCODING 1177
SWIDTH 500 0
DWIDTH 8 0
BBX 6 10 0 -2
BITMAP
78
84
04
38
08
04
84
78
08
30
ENDCHAR
STARTCHAR U+049A
ENCODING 1178
SWIDTH 500 0
DWIDTH 8 0
BBX 7 12 0 -2
BITMAP
C6
C8
C8
D0
D0
E0
D0
C8
C4
C2
02
02
ENDCHAR
STARTCHAR U+049B
ENCODING 1179
SWIDTH 500 0
DWIDTH 8 0
BBX 7 10 0 -2
BITMAP
C6
C8
D0
E0
D0
C8
C4
C2
02
02
ENDCHAR
STARTCHAR U+049C
ENCODING 1180
SWIDTH 500 0
DWIDTH 8 0
BBX 8 10 0 0
BITMAP
C3
C4
D4
D4
F8
D4
D4
D4
C2
C1
ENDCHAR
STARTCHAR U+049D
ENCODING 1181
SWIDTH 500 0
DWIDTH 8 0
BBX 8 8 0 0
BITMAP
C3
D4
D4
F8
D4
D4
C2
C1
ENDCHAR
STARTCHAR U+049E
ENCODING 1182
SWIDTH 500 0
DWIDTH 8 0
BBX 7 10 0 0
BITMAP
46
E8
48
50
50
70
50
48
44
42
ENDCHAR
STARTCHAR U+049F
ENCODING 1183
SWIDTH 500 0
DWIDTH 8 0
BBX 7 8 0 0
BITMAP
46
F8
50
60
50
48
44
42
ENDCHAR
STARTCHAR U+04A0
ENCODING 1184
SWIDTH 500 0
DWIDTH 8 0
BBX 8 10 0 0
BITMAP
E3
24
24
28
28
30
28
24
22
21
ENDCHAR
STARTCHAR U+04A1
ENCODING 1185
SWIDTH 500 0
DWIDTH 8 0
BBX 8 8 0 0
BITMAP
E3
24
28
30
28
24
22
21
ENDCHAR
STARTCHAR U+04A2
ENCODING 1186
SWIDTH 500 0
DWIDTH 8 0
BBX 8 12 0 -2
BITMAP
C2
C2
C2
C2
FE
C2
C2
C2
C2
C3
01
01
ENDCHAR
STARTCHAR U+04A3
ENCODING 1187
SWIDTH 500 0
DWIDTH 8 0
BBX 8 10 0 -2
BITMAP
C2
C2
C2
FE
C2
C2
C2
C3
01
01
ENDCHAR
STARTCHAR U+04A4
ENCODING 1188
SWIDTH 500 0
DWIDTH 8 0
BBX 8 10 0 0
BITMAP
C7
C4
C4
C4
FC
C4
C4
C4
C4
C4
ENDCHAR
STARTCHAR U+04A5
ENCODING 1189
SWIDTH 500 0
DWIDTH 8 0
BBX 8 8 0 0
BITMAP
C7
C4
C4
FC
C4
C4
C4
C4
ENDCHAR
STARTCHAR U+04A6
ENCODING 1190
SWIDTH 500 0
DWIDTH 8 0
BBX 8 12 0 -2
BITMAP
F8
C8
C8
C8
C8
CE
C9
C9
C9
C9
01
06
ENDCHAR
STARTCHAR U+04A7
ENCODING 1191
SWIDTH 500 0
DWIDTH 8 0
BBX 8 10 0 -2
BITMAP
F8
C8
C8
C8
CE
C9
C9
C9
01
06
ENDCHAR
STARTCHAR U+04A8
ENCODING 1192
SWIDTH 500 0
DWIDTH 8 0
BBX 8 12 0 -1
BITMAP
60
8C
92
92
92
92
92
92
92
4C
38
07
ENDCHAR
STARTCHAR U+04A9
ENCODING 1193
SWIDTH 500 0
DWIDTH 8 0
BBX 7 9 0 -1
BITMAP
40
8C
92
92
92
92
4C
38
06
ENDCHAR
STARTCHAR U+04AA
ENCODING 1194
SWIDTH 500 0
DWIDTH 8 0
BBX 7 12 0 -2
BITMAP
3C
42
C2
C0
C0
C0
C0
C2
42
3C
08
30
ENDCHAR
STARTCHAR U+04AB
ENCODING 1195
SWIDTH 500 0
DWIDTH 8 0
BBX 7 10 0 -2
BITMAP
3C
42
C2
C0
C0
C2
42
3C
08
30
ENDCHAR
STARTCHAR U+04AC
ENCODING 1196
SWIDTH 500 0
DWIDTH 8 0
BBX 7 12 0 -2
BITMAP
FE
10
10
10
10
10
10
10
10
18
08
08
ENDCHAR
STARTCHAR U+04AD
ENCODING 1197
SWIDTH 500 0
DWIDTH 8 0
BBX 7 10 0 -2
BITMAP
FE
10
10
10
10
10
10
18
08
08
ENDCHAR
STARTCHAR U+04AE
ENCODING 1198
SWIDTH 500 0
DWIDTH 8 0
BBX 7 10 0 0
BITMAP
82
82
44
44
28
10
10
10
10
10
ENDCHAR
STARTCHAR U+04AF
ENCODING 1199
SWIDTH 500 0
DWIDTH 8 0
BBX 5 10 1 -2
BITMAP
88
88
88
50
50
20
20
20
20
20
ENDCHAR
STARTCHAR U+04B0
ENCODING 1200
SWIDTH 500 0
DWIDTH 8 0
BBX 7 10 0 0
BITMAP
82
82
44
44
28
10
10
7C
10
10
ENDCHAR
STARTCHAR U+04B1
ENCODING 1201
SWIDTH 500 0
DWIDTH 8 0
BBX 5 10 1 -2
BITMAP
88
88
88
50
50
20
F8
20
20
20
ENDCHAR
STARTCHAR U+04B2
ENCODING 1202
SWIDTH 500 0
DWIDTH 8 0
BBX 7 12 0 -2
BITMAP
84
84
48
48
30
30
48
48
84
86
02
02
ENDCHAR
STARTCHAR U+04B3
ENCODING 1203
SWIDTH 500 0
DWIDTH 8 0
BBX 7 10 0 -2
BITMAP
84
84
48
30
30
48
84
86
02
02
ENDCHAR
STARTCHAR U+04B4
ENCODING 1204
SWIDTH 500 0
DWIDTH 8 0
BBX 8 12 0 -2
BITMAP
F2
22
22
22
22
22
22
22
22
3F
01
01
ENDCHAR
STARTCHAR U+04B5
ENCODING 1205
SWIDTH 500 0
DWIDTH 8 0
BBX 8 10 0 -2
BITMAP
F2
22
22
22
22
22
22
3F
01
01
ENDCHAR
STARTCHAR U+04B6
ENCODING 1206
SWIDTH 500 0
DWIDTH 8 0
BBX 8 12 0 -2
BITMAP
C2
C2
C2
C2
C2
46
3A
02
02
03
01
01
ENDCHAR
STARTCHAR U+04B7
ENCODING 1207
SWIDTH 500 0
DWIDTH 8 0
BBX 8 10 0 -2
BITMAP
C2
C2
C2
C2
46
3A
02
03
01
01
ENDCHAR
STARTCHAR U+04B8
ENCODING 1208
SWIDTH 500 0
DWIDTH 8 0
BBX 7 10 0 0
BITMAP
82
82
82
82
92
D6
3A
12
12
02
ENDCHAR
STARTCHAR U+04B9
ENCODING 1209
SWIDTH 500 0
DWIDTH 8 0
BBX 7 8 0 0
BITMAP
82
82
82
92
D6
3A
12
02
ENDCHAR
STARTCHAR U+04BA
ENCODING 1210
SWIDTH 500 0
DWIDTH 8 0
BBX 7 10 0 0
BITMAP
C0
C0
C0
DC
E2
C2
C2
C2
C2
C2
ENDCHAR
STARTCHAR U+04BB
ENCODING 1211
SWIDTH 500 0
DWIDTH 8 0
BBX 7 8 0 0
BITMAP
C0
C0
DC
E2
C2
C2
C2
C2
ENDCHAR
STARTCHAR U+04BC
ENCODING 1212
SWIDTH 500 0
DWIDTH 8 0
BBX 7 10 0 0
BITMAP
8C
92
92
92
7E
10
10
12
12
0C
ENDCHAR
STARTCHAR U+04BD
ENCODING 1213
SWIDTH 500 0
DWIDTH 8 0
BBX 7 8 0 0
BITMAP
8C
92
92
7E
10
10
12
0C
ENDCHAR
STARTCHAR U+04BE
ENCODING 1214
SWIDTH 500 0
DWIDTH 8 0
BBX 7 12 0 -2
BITMAP
8C
92
92
92
7E
10
10
12
12
0C
08
08
ENDCHAR
STARTCHAR U+04BF
ENCODING 1215
SWIDTH 500 0
DWIDTH 8 0
BBX 7 10 0 -2
BITMAP
8C
92
92
7E
10
10
12
0C
08
08
ENDCHAR
STARTCHAR U+04C0
ENCODING 1216
SWIDTH 500 0
DWIDTH 8 0
BBX 5 10 1 0
BITMAP
F8
20
20
20
20
20
20
20
20
F8
ENDCHAR
STARTCHAR U+04C1
ENCODING 1217
SWIDTH 500 0
DWIDTH 8 0
BBX 7 14 1 0
BITMAP
82
82
FE
00
92
92
54
54
38
38
54
54
92
92
ENDCHAR
STARTCHAR U+04C2
ENCODING 1218
SWIDTH 500 0
DWIDTH 8 0
BBX 7 13 1 0
BITMAP
44
44
7C
00
00
92
92
54
38
38
54
92
92
ENDCHAR
STARTCHAR U+04C3
ENCODING 1219
SWIDTH 500 0
DWIDTH 8 0
BBX 7 12 0 -2
BITMAP
C6
C8
C8
D0
E0
FC
C2
C2
C2
C2
02
0C
ENDCHAR
STARTCHAR U+04C4
ENCODING 1220
SWIDTH 500 0
DWIDTH 8 0
BBX 7 10 0 -2
BITMAP
C6
C8
D0
E0
FC
C2
C2
C2
02
0C
ENDCHAR
STARTCHAR U+04C5
ENCODING 1221
SWIDTH 500 0
DWIDTH 8 0
BBX 8 12 0 -2
BITMAP
3E
22
22
22
22
22
22
42
42
83
02
04
ENDCHAR
STARTCHAR U+04C6
ENCODING 1222
SWIDTH 500 0
DWIDTH 8 0
BBX 8 10 0 -2
BITMAP
3E
22
22
22
22
42
42
83
02
04
ENDCHAR
STARTCHAR U+04C7
ENCODING 1223
SWIDTH 500 0
DWIDTH 8 0
BBX 7 12 0 -2
BITMAP
82
82
82
82
FE
82
82
82
82
82
02
0C
ENDCHAR
STARTCHAR U+04C8
ENCODING 1224
SWIDTH 500 0
DWIDTH 8 0
BBX 7 10 0 -2
BITMAP
82
82
82
FE
82
82
82
82
02
0C
ENDCHAR
STARTCHAR U+04C9
ENCODING 1225
SWIDTH 500 0
DWIDTH 8 0
BBX 8 12 0 -2
BITMAP
82
82
82
82
FE
82
82
82
82
83
02
04
ENDCHAR
STARTCHAR U+04CA
ENCODING 1226
SWIDTH 500 0
DWIDTH 8 0
BBX 8 10 0 -2
BITMAP
82
82
82
FE
82
82
82
83
02
04
ENDCHAR
STARTCHAR U+04CB
ENCODING 1227
SWIDTH 500 0
DWIDTH 8 0
BBX 7 12 0 -2
BITMAP
C2
C2
C2
C2
C2
C6
3A
02
02
06
04
04
ENDCHAR
STARTCHAR U+04CC
ENCODING 1228
SWIDTH 500 0
DWIDTH 8 0
BBX 7 10 0 -2
BITMAP
C2
C2
C2
C2
C6
3A
02
06
04
04
ENDCHAR
STARTCHAR U+04CD
ENCODING 1229
SWIDTH 500 0
DWIDTH 8 0
BBX 8 12 0 -2
BITMAP
C2
C2
E6
E6
DA
DA
C2
C2
C2
C3
02
04
ENDCHAR
STARTCHAR U+04CE
ENCODING 1230
SWIDTH 500 0
DWIDTH 8 0
BBX 8 10 0 -2
BITMAP
C2
E6
E6
DA
DA
C2
C2
C3
02
04
ENDCHAR
STARTCHAR U+04CF
ENCODING 1231
SWIDTH 500 0
DWIDTH 8 0
BBX 5 10 1 0
BITMAP
F8
20
20
20
20
20
20
20
20
F8
ENDCHAR
STARTCHAR U+04D0
ENCODING 1232
SWIDTH 500 0
DWIDTH 8 0
BBX 6 13 1 0
BITMAP
84
78
00
30
48
48
84
84
FC
84
84
84
84
ENDCHAR
STARTCHAR U+04D1
ENCODING 1233
SWIDTH 500 0
DWIDTH 8 0
BBX 6 12 1 0
BITMAP
84
78
00
00
78
84
04
7C
84
84
8C
74
ENDCHAR
STARTCHAR U+04D2
ENCODING 1234
SWIDTH 500 0
DWIDTH 8 0
BBX 6 13 1 0
BITMAP
48
48
00
30
48
48
84
84
FC
84
84
84
84
ENDCHAR
STARTCHAR U+04D3
ENCODING 1235
SWIDTH 500 0
DWIDTH 8 0
BBX 6 11 1 0
BITMAP
48
48
00
78
84
04
7C
84
84
8C
74
ENDCHAR
STARTCHAR U+04D4
ENCODING 1236
SWIDTH 500 0
DWIDTH 8 0
BBX 8 10 0 0
BITMAP
1F
28
C8
C8
FF
C8
C8
C8
C8
CF
ENDCHAR
STARTCHAR U+04D5
ENCODING 1237
SWIDTH 500 0
DWIDTH 8 0
BBX 7 8 1 0
BITMAP
FC
92
12
7E
90
90
92
FE
ENDCHAR
STARTCHAR U+04D6
ENCODING 1238
SWIDTH 500 0
DWIDTH 8 0
BBX 7 13 0 0
BITMAP
84
78
00
FE
C0
C0
C0
FC
C0
C0
C0
C0
FE
ENDCHAR
STARTCHAR U+04D7
ENCODING 1239
SWIDTH 500 0
DWIDTH 8 0
BBX 7 11 0 0
BITMAP
84
78
00
3C
C2
C2
FE
C0
C0
C2
3C
ENDCHAR
STARTCHAR U+04D8
ENCODING 1240
SWIDTH 500 0
DWIDTH 8 0
BBX 7 10 0 0
BITMAP
38
44
82
02
02
7E
82
82
44
38
ENDCHAR
STARTCHAR U+04D9
ENCODING 1241
SWIDTH 500 0
DWIDTH 8 0
BBX 7 8 0 0
BITMAP
7C
82
02
02
7E
82
82
7C
ENDCHAR
STARTCHAR U+04DA
ENCODING 1242
SWIDTH 500 0
DWIDTH 8 0
BBX 7 14 0 0
BITMAP
48
48
00
00
38
44
82
02
02
FE
82
82
44
38
ENDCHAR
STARTCHAR U+04DB
ENCODING 1243
SWIDTH 500 0
DWIDTH 8 0
BBX 7 12 0 0
BITMAP
48
48
00
00
7C
82
02
02
FE
82
82
7C
ENDCHAR
STARTCHAR U+04DC
ENCODING 1244
SWIDTH 500 0
DWIDTH 8 0
BBX 8 14 0 0
BITMAP
24
24
00
00
89
49
2A
2A
1C
1C
2A
2A
49
89
ENDCHAR
STARTCHAR U+04DD
ENCODING 1245
SWIDTH 500 0
DWIDTH 8 0
BBX 8 12 0 0
BITMAP
24
24
00
00
89
49
2A
1C
1C
2A
49
89
ENDCHAR
STARTCHAR U+04DE
ENCODING 1246
SWIDTH 500 0
DWIDTH 8 0
BBX 7 14 0 0
BITMAP
48
48
00
00
7C
82
02
02
3C
04
02
02
82
7C
ENDCHAR
STARTCHAR U+04DF
ENCODING 1247
SWIDTH 500 0
DWIDTH 8 0
BBX 7 12 0 0
BITMAP
48
48
00
00
7C
82
02
3C
04
02
82
7C
ENDCHAR
STARTCHAR U+04E0
ENCODING 1248
SWIDTH 500 0
DWIDTH 8 0
BBX 7 10 0 0
BITMAP
FE
04
08
10
1C
02
02
02
86
7C
ENDCHAR
STARTCHAR U+04E1
ENCODING 1249
SWIDTH 500 0
DWIDTH 8 0
BBX 7 10 0 -2
BITMAP
7E
04
08
10
1C
02
02
02
82
7C
ENDCHAR
STARTCHAR U+04E2
ENCODING 1250
SWIDTH 500 0
DWIDTH 8 0
BBX 7 13 0 0
BITMAP
7C
00
00
C2
C6
C6
CA
CA
D2
D2
E2
E2
C2
ENDCHAR
STARTCHAR U+04E3
ENCODING 1251
SWIDTH 500 0
DWIDTH 8 0
BBX 7 11 0 0
BITMAP
7C
00
00
C6
C6
CA
CA
D2
D2
E2
E2
ENDCHAR
STARTCHAR U+04E4
ENCODING 1252
SWIDTH 500 0
DWIDTH 8 0
BBX 6 14 0 0
BITMAP
48
48
00
00
C4
C4
C4
CC
CC
D4
D4
E4
E4
C4
ENDCHAR
STARTCHAR U+04E5
ENCODING 1253
SWIDTH 500 0
DWIDTH 8 0
BBX 7 12 0 0
BITMAP
44
44
00
00
82
86
86
8A
92
A2
C2
82
ENDCHAR
STARTCHAR U+04E6
ENCODING 1254
SWIDTH 500 0
DWIDTH 8 0
BBX 7 14 0 0
BITMAP
24
24
00
00
3C
C2
C2
C2
C2
C2
C2
C2
C2
3C
ENDCHAR
STARTCHAR U+04E7
ENCODING 1255
SWIDTH 500 0
DWIDTH 8 0
BBX 7 12 0 0
BITMAP
24
24
00
00
3C
C2
C2
C2
C2
C2
C2
3C
ENDCHAR
STARTCHAR U+04E8
ENCODING 1256
SWIDTH 500 0
DWIDTH 8 0
BBX 7 10 0 0
BITMAP
7C
82
82
82
FE
82
82
82
82
7C
ENDCHAR
STARTCHAR U+04E9
ENCODING 1257
SWIDTH 500 0
DWIDTH 8 0
BBX 7 8 0 0
BITMAP
7C
82
82
FE
82
82
82
7C
ENDCHAR
STARTCHAR U+04EA
ENCODING 1258
SWIDTH 500 0
DWIDTH 8 0
BBX 7 14 0 0
BITMAP
48
48
00
00
7C
82
82
82
FE
82
82
82
82
7C
ENDCHAR
STARTCHAR U+04EB
ENCODING 1259
SWIDTH 500 0
DWIDTH 8 0
BBX 7 12 0 0
BITMAP
48
48
00
00
7C
82
82
FE
82
82
82
7C
ENDCHAR
STARTCHAR U+04EC
ENCODING 1260
SWIDTH 500 0
DWIDTH 8 0
BBX 7 12 0 0
BITMAP
44
00
7C
82
02
02
7E
02
02
02
82
7C
ENDCHAR
STARTCHAR U+04ED
ENCODING 1261
SWIDTH 500 0
DWIDTH 8 0
BBX 7 10 0 0
BITMAP
44
00
7C
82
02
3E
02
02
82
7C
ENDCHAR
STARTCHAR U+04EE
ENCODING 1262
SWIDTH 500 0
DWIDTH 8 0
BBX 7 13 0 0
BITMAP
7C
00
00
82
82
44
44
28
28
10
10
20
60
ENDCHAR
STARTCHAR U+04EF
ENCODING 1263
SWIDTH 500 0
DWIDTH 8 0
BBX 6 13 0 -2
BITMAP
7C
00
00
84
84
4C
4C
30
30
20
40
40
80
ENDCHAR
STARTCHAR U+04F0
ENCODING 1264
SWIDTH 500 0
DWIDTH 8 0
BBX 7 14 0 0
BITMAP
48
48
00
00
82
82
44
44
28
28
10
10
20
60
ENDCHAR
STARTCHAR U+04F1
ENCODING 1265
SWIDTH 500 0
DWIDTH 8 0
BBX 6 14 0 -2
BITMAP
48
48
00
00
84
84
48
48
30
30
20
20
40
C0
ENDCHAR
STARTCHAR U+04F2
ENCODING 1266
SWIDTH 500 0
DWIDTH 8 0
BBX 8 14 0 0
BITMAP
33
44
00
00
C1
C1
22
22
14
14
08
08
10
30
ENDCHAR
STARTCHAR U+04F3
ENCODING 1267
SWIDTH 500 0
DWIDTH 8 0
BBX 8 14 0 -2
BITMAP
33
44
00
00
C2
C2
24
24
18
18
10
10
20
60
ENDCHAR
STARTCHAR U+04F4
ENCODING 1268
SWIDTH 500 0
DWIDTH 8 0
BBX 7 14 0 0
BITMAP
44
44
00
00
82
82
82
82
82
86
7A
02
02
02
ENDCHAR
STARTCHAR U+04F5
ENCODING 1269
SWIDTH 500 0
DWIDTH 8 0
BBX 7 12 0 0
BITMAP
44
44
00
00
82
82
82
82
86
7A
02
02
ENDCHAR
STARTCHAR U+04F6
ENCODING 1270
SWIDTH 500 0
DWIDTH 8 0
BBX 7 12 0 -2
BITMAP
FE
80
80
80
80
80
80
80
80
E0
20
20
ENDCHAR
STARTCHAR U+04F7
ENCODING 1271
SWIDTH 500 0
DWIDTH 8 0
BBX 7 10 0 -2
BITMAP
FE
80
80
80
80
80
80
E0
20
20
ENDCHAR
STARTCHAR U+04F8
ENCODING 1272
SWIDTH 500 0
DWIDTH 8 0
BBX 7 14 0 0
BITMAP
48
48
00
80
82
82
82
82
F2
8A
8A
8A
8A
F2
ENDCHAR
STARTCHAR U+04F9
ENCODING 1273
SWIDTH 500 0
DWIDTH 8 0
BBX 7 12 0 0
BITMAP
48
48
00
00
82
82
82
F2
8A
8A
8A
F2
ENDCHAR
STARTCHAR U+04FA
ENCODING 1274
SWIDTH 500 0
DWIDTH 8 0
BBX 7 12 0 -2
BITMAP
3E
20
20
20
20
FC
20
20
20
38
08
18
ENDCHAR
STARTCHAR U+04FB
ENCODING 1275
SWIDTH 500 0
DWIDTH 8 0
BBX 7 10 0 -2
BITMAP
3E
20
20
FC
20
20
20
38
08
18
ENDCHAR
STARTCHAR U+04FC
ENCODING 1276
SWIDTH 500 0
DWIDTH 8 0
BBX 9 20 -3 -2
BITMAP
8000
0000
0000
0000
0000
0000
0000
0000
1080
1080
0900
0900
0600
0600
0900
0900
1080
1080
0080
0100
ENDCHAR
STARTCHAR U+04FD
ENCODING 1277
SWIDTH 500 0
DWIDTH 8 0
BBX 6 10 0 -2
BITMAP
80
C4
28
30
30
4C
84
84
04
08
ENDCHAR
STARTCHAR U+04FE
ENCODING 1278
SWIDTH 500 0
DWIDTH 8 0
BBX 7 10 0 0
BITMAP
C2
C4
4C
48
38
FE
48
44
82
82
ENDCHAR
STARTCHAR U+04FF
ENCODING 1279
SWIDTH 500 0
DWIDTH 8 0
BBX 7 8 0 0
BITMAP
82
82
44
38
FE
28
44
84
ENDCHAR
STARTCHAR U+20AC
ENCODING 8364
SWIDTH 500 0
DWIDTH 8 0
BBX 8 16 0 -2
BITMAP
00
00
00
3C
66
40
40
FE
40
FE
40
40
66
3C
00
00
ENDCHAR
ENDFONT
